<?xml version="1.0" standalone="no"?>
<!DOCTYPE svg PUBLIC "-//W3C//DTD SVG 20010904//EN"
 "http://www.w3.org/TR/2001/REC-SVG-20010904/DTD/svg10.dtd">
<svg version="1.0" xmlns="http://www.w3.org/2000/svg"
 width="1000.000000pt" height="1000.000000pt" viewBox="0 0 1000.000000 1000.000000"
 preserveAspectRatio="xMidYMid meet">

<g transform="translate(0.000000,1000.000000) scale(0.100000,-0.100000)"
fill="#000000" stroke="none">
<path d="M0 7844 l0 -2156 22 -18 22 -17 -22 -7 -22 -7 0 -669 c0 -665 0 -669
21 -680 24 -13 77 -4 102 18 22 20 22 63 -2 107 -15 28 -18 51 -15 121 2 48 7
90 11 94 21 16 94 33 148 34 84 2 88 6 80 83 -5 52 -3 69 10 91 30 46 72 79
122 96 32 11 54 27 68 48 23 36 81 61 135 59 20 -1 44 5 55 14 20 15 20 15 -4
35 -17 15 -19 20 -7 20 9 0 18 11 22 28 3 15 10 37 15 50 5 13 9 39 9 59 0 44
48 124 94 155 17 11 54 45 81 74 56 58 84 69 205 79 42 4 97 16 125 28 79 34
127 29 241 -29 89 -45 99 -52 107 -84 5 -19 14 -42 20 -50 21 -26 37 -59 37
-74 0 -15 18 -22 118 -46 45 -11 107 -59 117 -90 3 -10 36 -33 73 -52 52 -28
73 -45 96 -83 37 -61 57 -167 47 -254 -8 -66 4 -136 33 -189 8 -15 17 -35 20
-45 8 -26 32 -31 90 -17 113 27 318 -26 350 -90 7 -14 21 -39 30 -57 9 -17 16
-38 16 -46 0 -42 65 -61 104 -32 11 8 27 15 35 15 33 0 91 -21 91 -33 0 -7 16
-25 35 -40 32 -25 35 -32 29 -61 -4 -22 0 -44 10 -64 21 -41 20 -58 -5 -93
l-20 -29 53 -34 c29 -18 69 -50 88 -70 37 -38 86 -49 96 -21 4 8 14 15 24 15
11 0 22 5 25 10 4 6 11 8 16 4 5 -3 15 -1 22 4 7 6 39 20 72 31 32 12 95 44
140 73 124 80 193 112 293 139 51 13 92 28 92 34 0 5 -25 39 -56 75 -30 36
-69 94 -86 129 -18 35 -45 77 -62 93 -31 32 -38 32 -113 4 -54 -20 -269 -25
-286 -6 -9 10 -9 14 1 17 50 19 147 80 203 129 72 64 105 118 94 154 -13 40
-6 149 10 174 10 15 18 54 20 98 2 40 6 96 9 125 l4 52 -42 3 c-28 2 -41 8
-41 18 0 11 11 15 40 15 59 1 65 8 66 78 0 34 4 96 8 137 5 53 4 90 -6 129
-14 51 -13 54 6 68 14 9 21 25 21 46 0 18 7 55 16 82 8 28 24 102 35 165 21
125 38 204 74 350 38 152 54 220 70 297 16 80 49 183 70 223 l14 25 1 -27 c0
-47 -36 -190 -95 -378 -14 -41 -29 -113 -35 -160 -7 -47 -14 -104 -17 -127 -6
-50 5 -55 57 -25 30 16 31 16 46 -3 9 -11 12 -30 9 -43 -22 -88 -52 -285 -60
-392 -4 -47 -11 -89 -15 -95 -12 -16 -46 -152 -59 -235 -60 -403 -61 -416 -32
-425 10 -3 22 -20 27 -37 13 -44 29 -45 40 -1 7 28 15 39 31 41 37 5 39 -11
34 -333 l-1 -130 41 -82 c42 -83 61 -100 99 -88 11 4 20 2 20 -4 0 -6 10 -11
23 -11 12 0 28 -4 35 -8 18 -12 4 -42 -19 -42 -23 0 -32 -34 -21 -74 9 -34 32
-47 33 -19 0 15 2 14 9 -4 5 -13 13 -23 17 -23 19 1 43 29 43 49 0 16 -5 21
-22 20 -52 -5 -63 3 -23 16 39 12 39 13 16 22 -16 6 -20 12 -13 17 7 4 12 22
12 39 -1 49 -27 159 -39 167 -7 3 -9 13 -6 21 3 9 -1 55 -10 103 -8 49 -15
121 -14 160 0 70 1 71 14 35 7 -20 18 -80 24 -135 15 -133 20 -161 37 -219 15
-51 39 -93 49 -83 7 7 -31 157 -45 173 -5 6 -6 16 -1 21 4 5 5 52 0 104 -19
233 -14 510 6 313 4 -38 13 -112 21 -165 8 -54 14 -122 14 -152 0 -75 17 -159
36 -172 10 -8 13 -20 8 -38 -9 -36 45 -186 67 -186 25 0 30 -12 14 -30 -14
-15 -14 -18 0 -30 8 -7 15 -20 15 -29 0 -10 24 -31 55 -50 46 -28 52 -35 43
-50 -9 -14 -6 -28 13 -62 13 -24 33 -56 45 -70 18 -23 22 -24 30 -11 12 19 44
10 44 -13 0 -10 -10 -15 -27 -15 -27 -1 -27 -1 -8 -16 11 -8 30 -12 43 -9 12
3 22 1 22 -5 0 -5 7 -10 15 -10 8 0 15 5 15 11 0 7 10 9 24 5 14 -3 27 -2 30
3 3 4 -1 37 -9 72 -31 141 -43 167 -60 139 -10 -17 -25 -11 -25 10 0 13 7 20
20 20 18 0 20 4 13 42 -3 24 -12 49 -20 56 -7 7 -12 32 -12 55 1 23 4 33 6 22
3 -10 12 -29 20 -42 8 -12 12 -26 10 -31 -10 -15 12 -36 49 -47 44 -12 58 -35
20 -35 -13 0 -27 -4 -30 -8 -8 -13 24 -96 40 -105 9 -5 12 -16 9 -27 -3 -10 4
-34 16 -54 19 -33 30 -41 51 -37 5 0 8 -3 8 -9 0 -5 9 -10 21 -10 11 0 34 -13
50 -29 29 -29 37 -27 20 7 -5 9 -18 38 -30 64 -22 47 -41 70 -41 49 0 -6 -5
-11 -11 -11 -7 0 -9 10 -5 25 5 19 1 28 -21 42 -16 9 -29 18 -31 19 -2 1 2 11
9 23 11 16 11 27 0 58 -8 21 -23 44 -33 52 -12 8 -18 21 -15 32 6 24 -14 69
-31 69 -8 0 -10 8 -6 24 5 20 0 25 -28 35 l-33 12 23 17 c34 26 20 52 -27 52
-20 0 -41 4 -46 9 -6 5 -21 11 -34 13 -37 5 -39 28 -2 28 30 0 31 1 26 40 -3
24 -1 40 5 40 5 0 10 -11 10 -25 0 -13 5 -36 12 -50 9 -19 16 -24 32 -19 29 9
29 7 13 56 -8 23 -18 66 -22 93 -4 28 -9 58 -12 69 -3 12 -1 16 6 12 6 -4 11
-20 11 -36 0 -29 41 -171 65 -225 8 -16 19 -52 26 -78 10 -40 18 -52 46 -65
36 -17 42 -29 18 -38 -8 -4 -15 -14 -15 -23 1 -27 44 -96 60 -96 11 0 14 -9
12 -32 -1 -22 10 -55 34 -100 45 -83 158 -257 185 -284 10 -10 19 -23 19 -27
0 -4 34 -43 75 -85 41 -42 75 -81 75 -87 0 -5 7 -10 15 -10 9 0 18 -7 21 -15
4 -9 11 -15 18 -14 27 3 37 -3 62 -40 18 -27 36 -42 57 -47 18 -3 37 -10 42
-14 16 -13 68 -9 83 6 11 12 11 18 -2 41 -8 16 -27 63 -42 106 -21 59 -31 77
-46 77 -23 0 -34 26 -18 45 14 17 9 26 -47 86 -53 56 -105 136 -94 143 5 3 32
-21 61 -54 44 -50 56 -59 77 -54 22 6 23 4 18 -18 -5 -21 1 -32 41 -65 26 -23
64 -46 85 -53 21 -7 40 -19 43 -27 3 -8 10 -12 16 -8 5 3 15 -3 22 -14 11 -18
13 -18 25 -3 11 15 14 15 23 2 7 -11 10 -11 10 -2 0 7 8 22 19 33 16 17 17 27
9 61 -11 51 -22 73 -64 125 -19 23 -34 46 -34 51 0 6 -25 47 -55 92 -30 45
-55 87 -55 94 0 7 -9 21 -20 31 -11 10 -20 28 -20 39 0 12 -4 26 -8 32 -8 13
-74 10 -149 -7 -56 -12 -87 -7 -81 14 6 15 73 29 151 31 45 1 57 4 57 17 0 27
-23 83 -38 95 -9 6 -13 18 -9 27 7 18 -21 30 -65 29 -18 0 -28 5 -28 14 0 8 8
14 18 14 25 1 68 35 53 44 -6 4 -11 18 -11 31 0 13 -8 47 -19 77 -22 62 -41
140 -41 168 0 25 19 36 35 19 12 -12 57 -128 72 -184 11 -40 71 -161 87 -174
9 -7 16 -19 16 -27 0 -14 45 -103 61 -118 13 -14 11 7 -6 79 -17 71 -19 141
-4 151 14 8 3 66 -23 124 -12 25 -22 54 -23 65 -1 11 -19 65 -39 120 -35 97
-51 197 -31 203 5 2 14 -11 21 -30 6 -18 21 -53 32 -78 11 -25 24 -59 27 -75
9 -38 46 -137 57 -149 4 -6 8 -19 8 -31 0 -22 33 -90 54 -111 7 -7 29 -19 47
-27 19 -8 48 -29 64 -47 53 -58 78 -80 91 -80 19 0 18 20 -2 41 -9 10 -18 27
-19 36 -1 10 -4 25 -7 33 -4 8 -9 27 -12 41 -9 42 -43 76 -91 90 -24 7 -47 20
-50 27 -4 10 0 12 12 7 10 -4 29 -10 43 -12 l25 -5 -24 20 c-19 16 -23 25 -18
51 5 23 3 31 -7 31 -8 0 -17 16 -21 37 -4 20 -14 43 -23 50 -16 11 -15 16 9
61 26 47 26 49 13 117 -8 39 -16 99 -19 135 -7 90 -21 148 -65 275 -22 61 -43
128 -49 150 -5 22 -21 83 -36 135 -14 52 -32 129 -39 170 -8 41 -22 89 -30
105 -9 17 -16 44 -16 60 l-1 30 -17 -31 c-9 -17 -29 -48 -45 -70 -41 -58 -127
-194 -127 -200 0 -3 -21 -28 -47 -55 -47 -49 -83 -63 -83 -33 0 24 -26 0 -45
-40 -27 -57 -132 -179 -170 -199 -37 -19 -37 -19 -31 -69 11 -79 92 -312 157
-447 62 -131 66 -141 48 -141 -26 0 -81 101 -145 269 -25 64 -49 125 -54 136
-5 11 -21 65 -35 120 -82 307 -96 438 -98 905 -2 428 22 819 54 869 10 15 7
-106 -7 -354 -5 -83 0 -125 15 -125 11 0 21 95 26 255 4 131 16 230 29 242 5
4 4 -48 0 -117 -12 -174 -10 -651 3 -795 12 -121 34 -260 45 -270 3 -3 8 36
12 87 4 51 9 107 11 123 1 17 6 59 10 95 3 36 10 91 16 123 5 31 13 85 19 120
5 34 17 103 25 152 9 50 20 117 26 150 37 228 215 925 242 953 25 24 32 7 19
-41 -50 -174 -143 -558 -197 -808 -56 -262 -101 -611 -110 -853 -6 -187 -16
-232 -48 -230 -15 2 -17 -3 -12 -30 4 -17 16 -50 28 -73 20 -41 20 -43 2 -63
-17 -19 -18 -19 -43 0 -29 23 -67 26 -75 6 -8 -20 4 -98 17 -118 11 -15 14
-15 45 0 52 25 111 91 111 124 0 15 -6 28 -12 29 -7 0 -1 5 13 10 14 5 31 21
38 35 10 23 9 26 -9 31 -27 7 -21 26 11 33 29 7 49 46 79 150 12 41 28 98 36
125 48 170 70 283 114 590 26 183 30 199 54 203 17 4 18 -1 12 -65 -9 -86 -20
-152 -63 -388 -19 -104 -41 -226 -48 -270 -15 -80 -24 -120 -44 -185 -17 -55
-14 -79 8 -73 13 3 17 11 14 24 -3 10 0 19 6 19 6 0 11 -4 11 -10 0 -5 4 -10
10 -10 17 0 47 40 81 108 77 155 126 208 123 134 -2 -26 2 -31 24 -34 23 -3
26 -9 43 -98 40 -205 51 -258 75 -345 39 -139 53 -175 69 -169 7 3 16 1 20 -5
3 -6 -1 -11 -9 -11 -9 0 -16 -4 -16 -8 0 -40 108 -273 157 -340 28 -39 169
-182 179 -182 3 0 25 -13 49 -30 47 -32 82 -42 224 -64 86 -13 98 -13 125 2
20 10 52 15 93 14 91 -2 105 21 116 180 l5 77 -34 30 c-39 35 -40 38 -15 69
23 26 72 29 128 7 103 -40 252 -57 296 -34 25 14 48 37 132 134 64 76 131 148
211 230 46 47 122 140 149 183 61 96 111 220 96 235 -32 32 15 56 48 25 24
-22 28 -80 8 -144 -15 -52 -78 -158 -129 -221 -22 -26 -50 -60 -61 -74 -12
-15 -73 -80 -136 -145 -146 -152 -211 -230 -211 -253 0 -29 -24 -34 -165 -40
-118 -6 -130 -8 -134 -25 -2 -11 -13 -36 -25 -55 -20 -33 -29 -53 -51 -116
-10 -27 -16 -156 -8 -168 6 -10 8 -23 16 -102 5 -41 26 -65 124 -137 35 -25
43 -38 49 -74 3 -24 12 -49 20 -55 8 -6 21 -37 30 -68 46 -161 55 -177 89
-155 32 21 41 13 50 -42 5 -38 3 -48 -12 -59 -17 -14 -17 -16 10 -65 15 -27
27 -57 27 -66 0 -9 5 -12 12 -8 7 5 9 2 6 -8 -9 -23 48 -88 77 -88 28 0 37
-11 25 -30 -6 -10 -4 -21 7 -32 14 -16 14 -21 1 -50 -29 -62 -30 -83 -4 -111
13 -13 26 -33 30 -43 7 -17 9 -17 19 -3 7 9 26 23 43 32 27 14 34 14 59 1 16
-8 33 -13 39 -11 6 3 19 0 28 -4 9 -5 35 -10 57 -11 37 -1 46 5 113 68 l73 68
-3 61 c-2 33 1 71 6 85 6 17 5 39 -4 70 -14 47 -18 117 -8 144 7 18 46 21 75
5 26 -13 45 2 54 43 10 44 -12 64 -50 46 -22 -10 -29 -10 -33 0 -6 20 -19 14
-18 -9 1 -12 -4 -24 -10 -26 -29 -10 -43 325 -15 375 5 8 4 32 -2 55 -7 27 -7
58 1 100 13 67 7 91 -13 53 -17 -32 -66 -176 -100 -291 -14 -49 -33 -105 -41
-123 -8 -18 -14 -48 -14 -66 0 -19 -9 -44 -20 -57 -19 -22 -21 -23 -33 -7 -21
27 -10 75 19 82 16 4 24 13 24 29 0 33 28 162 44 199 19 47 46 133 46 149 0 8
14 41 30 73 17 32 30 64 30 71 0 20 47 120 61 132 8 6 23 13 34 15 16 2 21 15
28 58 8 59 18 76 39 67 11 -4 14 -36 11 -158 -3 -184 2 -229 26 -229 9 0 22
-5 29 -12 9 -9 12 -8 12 6 0 18 35 56 50 56 43 0 49 -204 8 -257 -6 -7 -5 -14
2 -18 8 -5 4 -15 -10 -30 -23 -24 -19 -51 6 -41 7 3 48 -2 91 -10 139 -26 173
-1 99 75 -43 43 -106 149 -106 177 0 7 -7 14 -15 18 -8 3 -15 17 -15 31 0 19
5 25 23 25 29 0 47 -18 47 -45 0 -12 12 -32 26 -46 l25 -24 20 25 c21 27 18
69 -6 83 -11 5 -9 12 8 31 19 22 24 23 38 10 8 -8 21 -14 27 -14 6 0 10 -13
10 -30 -1 -19 -6 -30 -15 -30 -11 0 -9 -7 6 -29 18 -25 20 -39 16 -119 l-5
-90 32 -15 c18 -8 65 -18 103 -21 39 -4 110 -13 158 -22 86 -14 113 -14 210 8
71 15 147 -4 243 -62 76 -45 80 -50 100 -106 11 -33 26 -72 32 -87 7 -16 12
-32 12 -37 0 -12 42 -91 66 -123 10 -14 42 -34 69 -44 33 -12 67 -35 100 -70
28 -28 73 -66 101 -85 75 -49 103 -87 115 -157 l11 -61 82 6 c102 8 261 -18
309 -50 32 -22 32 -23 28 -90 -4 -77 14 -129 55 -159 l24 -18 0 500 c0 390 -3
501 -12 505 -10 5 -10 7 0 12 21 10 13 31 -13 38 -32 8 -32 21 0 42 23 15 26
23 23 63 -3 44 -4 46 -38 52 -51 8 -79 26 -86 55 -9 35 0 40 51 26 67 -18 75
-16 75 17 0 16 -6 32 -12 34 -10 4 -10 6 0 6 18 1 16 80 -3 87 -8 4 -15 12
-15 20 0 8 7 14 15 14 13 0 15 204 15 1778 l0 1779 -27 12 c-51 23 -138 24
-189 2 -55 -25 -69 -20 -110 41 -16 24 -48 61 -71 84 -54 51 -56 81 -10 173
31 64 97 144 126 153 20 6 -15 53 -51 68 -15 7 -34 20 -42 29 -15 16 -15 20 5
44 11 15 25 27 30 27 5 0 53 21 107 46 98 47 148 57 205 41 l27 -7 0 145 0
145 -26 0 c-28 0 -115 -54 -154 -95 -28 -30 -41 -31 -64 -6 -26 28 -114 38
-164 18 -36 -14 -41 -14 -68 2 -56 33 -111 44 -163 30 -42 -10 -50 -10 -81 10
-19 11 -49 21 -66 21 -17 0 -43 9 -58 21 -28 22 -33 53 -14 93 9 21 8 29 -5
44 -20 22 -22 55 -4 70 6 5 48 22 92 38 49 17 92 39 111 58 17 16 53 37 80 46
48 16 49 17 46 54 -3 35 -2 37 51 60 52 24 67 40 67 73 0 8 12 24 26 35 l25
21 -28 29 c-15 17 -60 45 -99 63 -66 30 -114 74 -114 104 0 8 -112 11 -384 11
l-384 0 -10 -28 c-15 -44 -58 -87 -116 -118 -49 -25 -57 -27 -80 -15 -32 18
-80 0 -104 -38 -45 -72 -123 -116 -188 -107 -54 7 -98 -6 -132 -41 -16 -15
-42 -35 -58 -43 -16 -8 -35 -21 -43 -28 -7 -7 -32 -12 -55 -11 -56 1 -155 -12
-162 -22 -3 -5 -14 -9 -25 -9 -10 0 -19 -7 -19 -15 0 -9 -7 -18 -15 -21 -8 -4
-15 -12 -15 -19 0 -16 -57 -65 -75 -65 -26 0 -65 -23 -65 -38 0 -8 10 -32 22
-53 17 -31 19 -43 11 -61 -6 -13 -15 -48 -18 -78 -4 -30 -11 -82 -15 -115 -8
-63 -18 -100 -35 -125 -14 -21 -65 -54 -93 -60 -19 -4 -29 -20 -48 -74 -13
-38 -24 -77 -24 -85 0 -9 27 -38 60 -65 66 -53 74 -75 13 -33 -21 14 -92 46
-158 70 -66 25 -151 61 -190 81 -38 19 -101 42 -140 51 -38 8 -92 21 -120 28
-58 16 -122 18 -563 20 -297 2 -324 3 -333 20 -8 14 -24 17 -84 17 -40 0 -85
-4 -98 -9 -18 -7 -32 -5 -53 8 -40 24 -92 33 -117 20 -11 -7 -46 -11 -76 -11
-33 0 -65 -5 -78 -14 -35 -22 -61 -17 -78 16 -35 68 -3 171 78 249 49 47 51
61 12 61 -63 0 -98 45 -52 68 47 24 204 74 237 75 48 3 50 28 6 62 -38 29 -47
61 -20 72 9 3 69 0 133 -7 187 -20 252 -22 316 -10 33 6 93 15 134 21 40 5 88
16 107 25 18 9 42 13 53 9 40 -12 35 18 -10 57 -42 37 -43 39 -25 53 29 22
135 19 223 -7 68 -19 82 -20 146 -10 48 8 95 9 140 3 77 -10 120 2 111 32 -4
13 0 17 20 17 39 0 33 31 -14 74 -37 33 -45 36 -100 36 -51 0 -65 4 -85 25
-21 20 -25 34 -25 79 0 30 -3 61 -6 70 -7 18 -59 22 -69 6 -3 -5 -17 -10 -31
-10 -13 0 -24 5 -24 10 0 7 -822 10 -2445 10 l-2445 0 -46 -35 c-59 -45 -89
-53 -116 -29 -11 11 -24 29 -29 42 -8 21 -13 22 -131 22 l-123 0 -33 -34 c-18
-19 -43 -37 -56 -40 -13 -3 -49 -21 -80 -40 -32 -19 -71 -38 -87 -41 -16 -4
-31 -11 -34 -16 -13 -21 -56 -8 -92 29 -37 36 -39 37 -132 42 -110 6 -128 19
-99 70 l17 30 -284 0 -285 0 0 -2156z m1935 1221 c0 -14 -8 -21 -27 -23 -22
-3 -28 1 -28 17 0 10 6 22 13 24 23 10 42 2 42 -18z m-277 -147 c4 -19 -35
-35 -50 -20 -6 6 -8 18 -4 27 8 21 50 16 54 -7z m4075 -48 c-13 -13 -141 -40
-158 -34 -32 13 1 25 130 47 25 4 39 -3 28 -13z m-222 -44 c0 -10 -85 -39
-147 -50 -56 -11 -32 11 34 30 31 9 66 20 77 24 23 10 37 8 36 -4z m1171 -130
c-2 -32 1 -52 10 -58 9 -6 7 -8 -7 -6 -14 2 -21 -3 -23 -19 -3 -17 1 -20 18
-16 13 3 30 25 44 57 28 61 51 85 68 68 8 -8 5 -42 -12 -129 -50 -251 -33
-619 29 -653 12 -6 29 -5 50 3 47 17 54 3 56 -110 1 -54 6 -109 12 -123 6 -14
9 -28 6 -32 -2 -5 2 -8 10 -8 8 0 20 -6 26 -13 6 -8 23 -12 40 -9 25 3 32 12
49 61 12 31 23 79 27 106 3 28 15 96 27 153 19 94 20 110 8 173 -10 50 -10 73
-3 80 15 15 32 -20 67 -135 28 -90 56 -249 56 -316 0 -20 9 -74 21 -121 28
-116 27 -115 41 -101 7 7 25 12 40 12 21 0 28 5 28 19 0 11 5 23 10 26 6 3 10
15 10 25 0 11 10 22 22 26 17 5 27 1 41 -18 18 -24 20 -25 49 -11 16 8 33 25
37 37 5 12 2 72 -6 136 -15 125 -14 171 4 177 14 5 28 -40 43 -137 33 -215 34
-215 101 -214 30 1 59 2 66 3 7 1 15 17 19 36 3 19 10 38 15 41 17 10 45 -6
63 -36 16 -27 21 -30 51 -24 33 6 35 4 56 -41 21 -45 21 -48 5 -121 -19 -88
-22 -254 -4 -254 6 0 19 -7 28 -15 14 -13 19 -12 45 1 28 14 31 14 47 -6 24
-30 24 -144 -1 -241 -10 -41 -21 -100 -25 -133 -3 -32 -11 -67 -16 -77 -8 -15
-7 -17 5 -13 8 4 15 11 15 16 0 14 62 98 72 98 17 0 7 -38 -22 -83 -17 -26
-37 -63 -45 -83 -9 -22 -31 -45 -65 -66 -27 -17 -50 -37 -50 -45 0 -7 17 -48
39 -91 21 -42 53 -122 71 -177 18 -55 41 -126 51 -158 21 -63 24 -103 9 -112
-16 -10 -11 -37 8 -42 13 -3 23 -24 35 -68 21 -80 22 -115 2 -115 -9 0 -18
-12 -22 -30 l-6 -30 -17 32 c-9 18 -20 62 -23 98 -3 36 -11 79 -18 95 -7 17
-18 48 -25 70 -38 125 -104 292 -151 384 -27 52 -28 67 -7 79 19 11 14 44 -11
76 -12 16 -17 17 -30 6 -8 -7 -15 -23 -15 -37 0 -18 -5 -23 -17 -21 -10 2 -17
8 -17 14 1 5 5 25 9 44 7 30 6 33 -8 22 -14 -12 -21 -42 -33 -145 -6 -47 -7
-48 -38 -46 -17 1 -46 -1 -63 -5 -26 -6 -34 -14 -43 -44 -5 -20 -10 -62 -10
-92 0 -30 -5 -95 -11 -145 -11 -87 -27 -125 -54 -125 -23 0 -28 34 -30 213 -1
97 -4 180 -7 182 -2 3 -31 6 -64 8 -67 5 -131 -17 -152 -52 -26 -45 -56 -18
-68 60 -4 24 -15 58 -25 74 -25 43 -13 59 41 50 37 -6 41 -5 38 11 -2 11 -23
24 -58 37 -30 10 -62 25 -71 33 -26 23 -32 92 -14 167 9 38 13 72 11 76 -9 13
52 88 89 110 45 26 45 41 -1 34 -45 -7 -54 5 -54 74 0 57 -16 103 -36 103 -29
0 -33 70 -4 77 20 5 29 33 10 33 -19 0 -10 28 10 33 20 5 29 37 10 37 -5 0
-10 -5 -10 -12 0 -20 -38 28 -42 53 -3 23 -4 23 -21 -8 -11 -20 -25 -33 -37
-33 -12 0 -25 -10 -32 -25 -6 -13 -15 -22 -19 -19 -5 3 -9 1 -9 -3 0 -5 -12
-21 -27 -37 -14 -16 -26 -40 -27 -55 -1 -19 -7 -27 -23 -29 -13 -2 -23 -7 -23
-12 0 -4 -23 -23 -51 -41 -43 -27 -54 -31 -70 -21 -10 7 -26 12 -34 12 -25 0
-65 -50 -65 -80 0 -42 -23 -55 -69 -41 -57 17 -115 14 -134 -6 -8 -10 -18 -47
-22 -84 -5 -43 -18 -89 -39 -130 -27 -57 -37 -67 -83 -89 -29 -14 -53 -28 -53
-32 0 -5 16 -8 35 -8 23 0 38 -6 42 -15 8 -23 2 -25 -73 -31 -87 -7 -127 6
-119 39 6 22 4 23 -66 22 -77 -1 -110 14 -88 41 15 19 2 35 -25 28 -26 -6 -51
18 -42 41 7 18 37 20 54 3 9 -9 12 -9 12 0 0 6 9 16 20 22 17 9 28 7 54 -9 38
-24 46 -26 46 -11 0 13 -72 45 -122 54 -23 4 -46 2 -59 -5 -17 -9 -25 -8 -37
5 -14 14 -14 17 0 33 16 18 17 51 3 133 -5 29 -18 50 -51 80 -24 22 -44 46
-44 53 0 6 17 26 37 43 l38 32 -20 22 c-23 26 -55 22 -108 -12 -19 -13 -48
-30 -65 -39 -28 -16 -31 -22 -37 -95 -16 -163 13 -411 70 -615 33 -116 128
-333 176 -401 31 -43 25 -51 -34 -46 -39 3 -69 14 -113 41 -32 21 -68 43 -79
50 -11 7 -23 16 -26 20 -16 22 -17 -32 -4 -111 9 -48 20 -129 25 -179 10 -90
43 -237 59 -258 5 -5 11 -22 14 -36 5 -19 15 -28 38 -33 41 -8 99 -36 121 -58
10 -10 26 -18 36 -18 10 0 35 -16 56 -35 31 -28 47 -35 80 -35 29 0 47 -6 59
-20 9 -11 30 -23 46 -26 36 -7 76 -48 66 -65 -6 -8 -30 -10 -85 -6 -68 5 -96
15 -221 72 -78 35 -144 63 -146 61 -2 -2 2 -26 11 -52 8 -27 34 -119 59 -204
25 -85 51 -169 58 -187 7 -18 10 -36 6 -40 -17 -16 -40 16 -59 77 -10 36 -22
72 -25 80 -22 57 -106 301 -113 328 -5 19 -18 44 -30 57 -16 18 -20 29 -14 47
4 12 7 25 7 28 -1 3 -6 47 -12 98 -5 51 -15 108 -20 125 -6 18 -17 68 -25 112
-14 70 -23 131 -55 345 -4 25 -23 81 -43 125 -63 140 -103 294 -115 443 -5 72
-4 82 10 82 19 0 19 -1 47 -165 25 -150 51 -238 101 -341 43 -90 95 -146 128
-137 12 3 22 1 22 -3 1 -5 3 -20 4 -34 2 -22 78 -100 98 -100 14 0 7 27 -13
45 -11 10 -20 27 -20 37 0 10 -18 61 -40 113 -66 155 -118 374 -133 555 -14
185 -12 391 8 555 8 66 17 156 20 200 9 116 70 407 114 543 48 147 99 251 157
319 78 91 111 63 70 -59 -13 -41 -40 -127 -60 -193 -19 -66 -49 -165 -66 -220
-17 -55 -51 -169 -75 -253 -24 -85 -58 -183 -75 -219 -35 -73 -61 -216 -43
-234 8 -8 24 -3 57 16 104 61 196 205 166 261 -14 26 -11 30 55 77 14 10 25
24 25 32 0 7 19 33 43 57 44 46 87 138 128 276 24 83 51 124 69 105 13 -12 3
-63 -40 -213 -22 -76 -22 -129 1 -156 8 -10 38 -14 115 -14 99 0 105 1 113 23
5 12 19 31 31 42 25 22 80 130 80 158 0 26 28 88 45 101 13 10 13 19 1 81 -8
39 -17 102 -21 140 -17 181 56 484 114 473 13 -3 15 -14 13 -52z m-1462 24
c-8 -6 -22 -10 -30 -9 -9 0 -5 6 10 14 27 14 44 10 20 -5z m-111 -53 c-19 -18
-69 -38 -69 -29 0 10 73 52 79 46 3 -2 -2 -10 -10 -17z m-129 -64 c0 -9 -56
-49 -82 -59 -33 -12 -18 11 24 39 43 28 58 33 58 20z m2565 -115 c117 -89 375
-358 375 -391 0 -3 22 -41 49 -84 68 -110 104 -186 130 -273 12 -41 30 -102
41 -135 22 -73 38 -249 22 -259 -6 -4 -23 25 -40 71 -17 43 -38 92 -46 108 -9
17 -16 38 -16 47 0 9 -6 29 -14 45 -8 15 -35 72 -60 127 -26 54 -55 110 -65
125 -10 14 -33 53 -51 86 -18 33 -65 105 -104 160 -66 94 -160 231 -242 353
-19 29 -42 56 -50 59 -8 3 -14 13 -14 22 1 14 2 14 13 1 7 -9 39 -36 72 -62z
m-5865 -28 c0 -15 -7 -20 -29 -20 -36 0 -48 15 -24 29 29 17 53 13 53 -9z
m287 -6 c9 -24 -11 -37 -46 -29 -31 7 -42 29 -18 38 26 11 58 6 64 -9z m2813
11 c0 -6 -31 -37 -106 -105 -27 -25 -72 -74 -99 -108 -27 -35 -51 -59 -53 -53
-2 7 3 22 11 35 58 88 247 265 247 231z m-292 -315 c-7 -10 -14 -17 -17 -15
-4 4 18 35 25 35 2 0 -1 -9 -8 -20z m-54 -87 c-48 -85 -104 -202 -130 -271
-14 -37 -45 -105 -69 -152 -24 -47 -56 -111 -71 -142 -46 -97 -63 -59 -20 42
25 57 25 80 -1 59 -19 -16 30 96 57 131 28 35 106 153 165 250 55 89 84 130
92 130 2 0 -8 -21 -23 -47z m306 -141 c0 -20 -93 -205 -141 -282 -16 -25 -44
-88 -63 -140 -19 -52 -48 -131 -66 -175 -40 -100 -133 -414 -154 -520 -9 -44
-20 -119 -25 -167 -6 -48 -14 -95 -19 -105 -6 -10 -14 -40 -20 -68 -5 -27 -17
-77 -26 -110 -10 -33 -15 -71 -12 -85 2 -14 -4 -66 -14 -116 -38 -183 -35
-366 5 -445 9 -16 12 -29 8 -29 -14 0 -13 -160 2 -320 12 -134 12 -157 0 -169
-26 -26 -50 11 -76 117 -17 70 -30 103 -47 119 -19 17 -22 26 -14 36 9 10 6
31 -9 83 -42 140 -48 166 -54 252 -5 79 -11 121 -31 235 -4 21 -11 40 -15 43
-5 3 -3 17 5 32 8 15 17 54 21 87 37 341 66 490 130 683 55 163 75 207 95 207
24 0 25 -77 1 -130 -11 -25 -17 -45 -14 -45 10 0 32 35 33 52 0 10 11 19 30
23 19 4 30 13 30 23 0 9 8 31 18 47 23 39 74 177 106 285 31 110 32 111 110
270 67 137 150 285 175 314 18 21 31 20 31 -2z m-2634 -68 c37 -18 45 -47 17
-59 -30 -12 -362 -27 -479 -22 -108 5 -184 24 -184 46 0 6 9 20 20 31 19 19
33 20 306 20 242 0 291 -2 320 -16z m1947 -631 c-3 -16 -17 -54 -30 -85 -13
-32 -23 -64 -23 -72 0 -21 -30 -89 -37 -82 -7 7 79 266 90 266 4 0 4 -12 0
-27z m760 -4 c8 -30 -1 -48 -34 -65 -28 -14 -29 -14 -29 9 0 24 34 77 50 77 4
0 10 -9 13 -21z m-4745 -133 c-4 -25 -27 -28 -41 -4 -8 12 -7 21 2 32 18 21
43 2 39 -28z m182 -7 c0 -5 -7 -9 -15 -9 -15 0 -20 12 -9 23 8 8 24 -1 24 -14z
m7906 -135 c-3 -8 -10 -14 -16 -14 -14 0 -13 37 2 63 13 22 13 22 16 -6 2 -16
1 -35 -2 -43z m-7868 34 c35 -35 -4 -82 -48 -58 -24 13 -26 33 -4 54 19 19 36
20 52 4z m-187 -8 c25 -14 24 -42 -1 -65 -16 -15 -22 -15 -35 -5 -27 22 -19
71 13 79 2 1 12 -4 23 -9z m3856 -22 c-3 -8 -6 -5 -6 6 -1 11 2 17 5 13 3 -3
4 -12 1 -19z m-3659 -80 c19 -19 14 -28 -16 -28 -34 0 -43 7 -35 26 6 17 35
18 51 2z m-94 -4 c29 -11 16 -24 -24 -24 -38 0 -54 13 -27 23 18 8 33 8 51 1z
m852 -45 c8 -14 -14 -29 -42 -29 -23 0 -48 23 -37 33 11 11 71 8 79 -4z m-139
-164 c7 -20 3 -23 -35 -31 -27 -6 -32 -4 -32 13 0 11 3 23 7 26 12 13 54 7 60
-8z m3393 -749 c0 -3 -4 -8 -10 -11 -5 -3 -10 -1 -10 4 0 6 5 11 10 11 6 0 10
-2 10 -4z m2665 -19 c10 -8 14 -16 9 -20 -19 -11 -207 -28 -216 -19 -16 16 15
31 82 40 94 14 104 13 125 -1z m112 -12 c27 -11 34 -18 26 -26 -12 -12 -68 -5
-93 11 -13 9 -13 11 0 20 20 13 24 13 67 -5z m-2161 -146 c7 -12 -15 -31 -28
-23 -4 3 -8 12 -8 20 0 17 26 19 36 3z m3270 -83 c10 -40 1 -61 -26 -64 -14
-2 -34 4 -45 13 -20 15 -19 15 15 45 43 36 48 37 56 6z m113 -5 c19 -16 32
-35 29 -43 -3 -7 -27 -19 -54 -26 -44 -12 -50 -11 -61 4 -11 14 -10 21 2 34 8
9 15 21 15 26 0 11 20 34 30 34 3 0 20 -13 39 -29z m-2399 -27 c0 -8 -9 -14
-20 -14 -22 0 -26 10 -8 28 13 13 28 7 28 -14z m1947 -22 c6 -4 14 -19 18 -34
9 -35 43 -67 54 -50 6 10 40 8 41 -2 1 -9 110 -320 114 -324 11 -11 36 22 36
48 0 15 7 34 16 41 14 11 19 10 36 -11 21 -26 19 -70 -7 -120 -8 -16 -11 -42
-8 -66 4 -31 1 -43 -16 -58 -12 -11 -21 -31 -21 -47 0 -31 -3 -33 -43 -43 -24
-6 -29 -3 -37 21 -5 16 -16 41 -25 56 -8 16 -15 39 -15 51 0 66 -87 306 -111
306 -9 0 -15 -100 -11 -177 3 -42 -11 -66 -22 -38 -3 9 -8 53 -12 98 -3 45
-12 117 -20 159 -9 46 -13 97 -9 125 10 76 15 83 42 65z m-2797 -67 c0 -8 -7
-15 -15 -15 -16 0 -20 12 -8 23 11 12 23 8 23 -8z m3789 -54 c7 -5 10 -14 7
-20 -10 -16 -56 -14 -56 2 0 26 23 35 49 18z m341 -40 c0 -11 -25 -21 -56 -21
-23 0 -31 10 -17 23 10 10 73 8 73 -2z m517 -7 c-3 -3 -12 -4 -19 -1 -8 3 -5
6 6 6 11 1 17 -2 13 -5z m-982 -25 c6 -6 6 -16 -1 -27 -8 -12 -25 -17 -60 -17
-45 0 -49 2 -49 25 0 17 7 26 25 31 28 8 70 2 85 -12z m-8465 1 c0 -5 -11 -10
-25 -10 -14 0 -25 5 -25 10 0 6 11 10 25 10 14 0 25 -4 25 -10z m2248 -8 c2
-7 -7 -12 -22 -12 -27 0 -35 15 -13 23 17 7 30 3 35 -11z m1910 -43 c-2 -6 -8
-10 -13 -10 -5 0 -11 4 -13 10 -2 6 4 11 13 11 9 0 15 -5 13 -11z m592 1 c0
-5 -4 -10 -9 -10 -6 0 -13 5 -16 10 -3 6 1 10 9 10 9 0 16 -4 16 -10z m3150
-10 c0 -11 -4 -20 -9 -20 -11 0 -22 26 -14 34 12 12 23 5 23 -14z m-7605 -1
c136 12 187 13 183 0 -7 -21 -46 -25 -161 -19 -68 4 -112 11 -120 20 -10 10
-3 11 38 5 28 -4 55 -6 60 -6z m6645 -79 c0 -5 -4 -10 -10 -10 -5 0 -10 5 -10
10 0 6 5 10 10 10 6 0 10 -4 10 -10z m-3076 -36 c8 -20 8 -78 0 -97 -8 -22
-51 -9 -58 19 -7 27 22 94 40 94 6 0 15 -7 18 -16z m5511 -158 c22 -16 14 -46
-14 -46 -46 0 -64 23 -39 48 16 16 30 15 53 -2z m-8940 -6 c-3 -5 -13 -10 -21
-10 -8 0 -14 5 -14 10 0 6 9 10 21 10 11 0 17 -4 14 -10z m7663 -37 c2 -8 -6
-13 -22 -13 -26 0 -40 12 -29 24 11 11 46 2 51 -11z m-6038 -43 c0 -5 -4 -10
-10 -10 -5 0 -10 5 -10 10 0 6 5 10 10 10 6 0 10 -4 10 -10z m5170 -55 c0 -8
-4 -15 -10 -15 -5 0 -14 -15 -19 -32 l-9 -33 -1 41 c-1 22 2 44 6 47 12 13 33
7 33 -8z m414 -27 c4 -17 2 -28 -4 -28 -5 0 -10 6 -10 13 0 6 -3 23 -6 37 -5
17 -3 22 3 15 6 -5 13 -22 17 -37z m-3361 25 c3 -5 8 -39 12 -76 6 -66 6 -69
-13 -63 -15 5 -22 1 -27 -14 -4 -11 -11 -18 -16 -14 -12 7 -2 144 12 161 13
15 26 17 32 6z m507 -23 c0 -5 -4 -10 -10 -10 -5 0 -10 5 -10 10 0 6 5 10 10
10 6 0 10 -4 10 -10z m2060 -15 c0 -8 -6 -15 -14 -15 -17 0 -28 14 -19 24 12
12 33 6 33 -9z m765 -45 c8 -13 -20 -24 -41 -16 -20 8 -9 26 16 26 10 0 22 -5
25 -10z m-4397 -33 c3 -12 -4 -20 -17 -24 -20 -5 -20 -6 -4 -19 17 -13 17 -15
0 -28 -20 -16 -107 -29 -131 -20 -18 7 -22 34 -5 34 6 0 2 8 -10 18 -29 24
-14 44 41 53 73 12 122 7 126 -14z m4442 -33 c0 -17 -26 -19 -36 -3 -7 12 15
31 28 23 4 -3 8 -12 8 -20z m1990 17 c-22 -12 -110 -22 -110 -12 0 16 15 21
69 21 35 0 50 -4 41 -9z m-74 -65 c22 -17 11 -35 -13 -20 -19 12 -29 34 -16
34 5 0 18 -6 29 -14z m-2689 -11 c29 -20 19 -45 -17 -45 -32 0 -55 23 -46 45
7 19 36 19 63 0z m270 -62 c-3 -10 -5 -4 -5 12 0 17 2 24 5 18 2 -7 2 -21 0
-30z m-3490 -9 c-9 -9 -28 6 -21 18 4 6 10 6 17 -1 6 -6 8 -13 4 -17z m3480
-46 c-3 -7 -5 -2 -5 12 0 14 2 19 5 13 2 -7 2 -19 0 -25z m-97 -63 c0 -14 -4
-25 -10 -25 -5 0 -10 11 -10 25 0 14 5 25 10 25 6 0 10 -11 10 -25z m93 -37
c-8 -46 -13 -48 -13 -5 0 21 4 37 10 37 5 0 7 -14 3 -32z m1985 13 c34 -4 68
-13 75 -20 10 -11 -5 -12 -83 -6 -52 4 -103 11 -113 17 -28 14 -9 31 27 23 17
-4 59 -10 94 -14z m-4104 -38 c4 -9 1 -20 -6 -24 -16 -10 -43 15 -34 30 11 16
33 13 40 -6z m-96 -20 c-2 -13 -13 -18 -40 -18 -21 -1 -43 -6 -50 -13 -17 -17
-73 -15 -88 3 -14 17 -10 20 65 34 85 15 117 14 113 -6z m-488 -8 c0 -8 -9
-15 -20 -15 -11 0 -20 7 -20 15 0 8 9 15 20 15 11 0 20 -7 20 -15z m70 -15 c0
-5 -4 -10 -10 -10 -5 0 -10 5 -10 10 0 6 5 10 10 10 6 0 10 -4 10 -10z m208
-7 c5 -17 -26 -29 -40 -15 -6 6 -7 15 -3 22 9 14 37 9 43 -7z m2415 -73 c-3
-22 -10 -40 -14 -40 -11 0 -12 74 -2 110 l7 25 7 -27 c4 -15 5 -46 2 -68z
m-3095 59 c-2 -6 -8 -10 -13 -10 -5 0 -11 4 -13 10 -2 6 4 11 13 11 9 0 15 -5
13 -11z m-218 -13 c0 -15 -24 -28 -34 -19 -13 14 -5 33 14 33 11 0 20 -6 20
-14z m280 -6 c0 -5 -7 -10 -15 -10 -8 0 -15 5 -15 10 0 6 7 10 15 10 8 0 15
-4 15 -10z m197 -22 c-3 -8 -6 -5 -6 6 -1 11 2 17 5 13 3 -3 4 -12 1 -19z
m621 10 c-6 -18 -28 -21 -28 -4 0 9 7 16 16 16 9 0 14 -5 12 -12z m-91 -11
c-1 -5 -20 -12 -41 -14 -22 -2 -47 -8 -57 -13 -10 -6 -22 -10 -28 -10 -15 0
-14 37 2 43 23 10 128 5 124 -6z m-597 -18 c0 -6 -4 -7 -10 -4 -5 3 -10 11
-10 16 0 6 5 7 10 4 6 -3 10 -11 10 -16z m-175 2 c7 -12 -12 -24 -25 -16 -11
7 -4 25 10 25 5 0 11 -4 15 -9z m1009 -7 c11 -29 -11 -44 -45 -31 -22 9 -34 9
-49 -1 -27 -16 -60 -15 -60 2 0 16 28 28 73 31 15 2 31 6 34 9 12 12 41 6 47
-10z m-894 -35 c0 -5 -7 -9 -15 -9 -15 0 -20 12 -9 23 8 8 24 -1 24 -14z m616
-10 c10 -18 -11 -31 -40 -23 -30 7 -34 20 -8 27 30 8 41 7 48 -4z m-106 -18
c0 -5 -9 -11 -20 -14 -20 -5 -26 3 -13 16 9 10 33 8 33 -2z m-512 -27 c21 -14
22 -34 1 -34 -22 0 -89 36 -89 48 0 17 53 8 88 -14z m859 11 c3 -9 3 -19 -1
-22 -8 -9 -37 18 -30 28 8 14 24 11 31 -6z m-49 -13 c2 -7 -3 -12 -12 -12 -9
0 -16 7 -16 16 0 17 22 14 28 -4z m-58 -1 c0 -15 -59 -33 -86 -27 -31 8 -22
23 16 28 55 8 70 7 70 -1z m-632 -27 c26 -18 20 -34 -13 -34 -27 0 -39 14 -31
35 7 19 16 19 44 -1z m500 4 c-6 -18 -68 -32 -82 -18 -15 15 10 30 52 30 22 0
32 -4 30 -12z m-98 -13 c0 -8 -7 -15 -15 -16 -49 -4 -59 -2 -63 10 -3 10 0 12
11 8 9 -3 19 -2 22 3 10 16 45 11 45 -5z m4683 -16 c-8 -8 -16 -8 -30 0 -16 9
-14 10 12 11 21 0 26 -3 18 -11z m292 1 c-3 -5 -13 -10 -21 -10 -8 0 -14 5
-14 10 0 6 9 10 21 10 11 0 17 -4 14 -10z m-5525 -14 c0 -20 -19 -31 -32 -18
-6 6 -7 15 -4 21 10 16 36 13 36 -3z m720 -16 c0 -5 -11 -10 -25 -10 -14 0
-25 5 -25 10 0 6 11 10 25 10 14 0 25 -4 25 -10z m-72 -12 c-3 -7 -23 -14 -46
-16 -33 -2 -42 0 -42 12 0 12 11 16 46 16 32 0 44 -4 42 -12z m-118 -11 c0
-18 -47 -40 -56 -26 -8 13 4 25 31 32 11 3 21 5 23 6 1 0 2 -5 2 -12z m350
-27 c0 -5 -9 -10 -19 -10 -11 0 -23 -4 -26 -10 -9 -15 -35 -12 -35 4 0 14 20
21 63 25 9 0 17 -3 17 -9z m-775 -40 c-5 -8 -11 -8 -17 -2 -6 6 -7 16 -3 22 5
8 11 8 17 2 6 -6 7 -16 3 -22z m655 15 c0 -8 -4 -15 -9 -15 -13 0 -22 16 -14
24 11 11 23 6 23 -9z m-120 -5 c0 -11 -40 -34 -47 -26 -3 3 -3 12 0 21 7 16
47 21 47 5z m297 -32 c-3 -8 -6 -5 -6 6 -1 11 2 17 5 13 3 -3 4 -12 1 -19z
m-107 -18 c0 -5 -25 -10 -55 -10 -30 0 -55 -4 -55 -10 0 -5 -9 -10 -21 -10
-28 0 -19 23 12 31 38 11 119 10 119 -1z m-230 -30 c0 -5 -7 -10 -16 -10 -8 0
-12 5 -9 10 3 6 10 10 16 10 5 0 9 -4 9 -10z m4185 -30 c3 -5 -1 -10 -9 -10
-9 0 -16 5 -16 10 0 6 4 10 9 10 6 0 13 -4 16 -10z m154 -34 c14 -15 13 -16
-10 -16 -35 0 -89 20 -89 32 0 16 80 2 99 -16z m-3992 -12 c8 -21 -13 -42 -28
-27 -13 13 -5 43 11 43 6 0 13 -7 17 -16z m-267 -44 c0 -5 -4 -10 -10 -10 -5
0 -10 5 -10 10 0 6 5 10 10 10 6 0 10 -4 10 -10z m-65 -9 c8 -14 -23 -41 -40
-35 -16 6 -20 26 -8 37 9 10 41 8 48 -2z m335 -21 c0 -5 -4 -10 -10 -10 -5 0
-10 5 -10 10 0 6 5 10 10 10 6 0 10 -4 10 -10z m-162 -27 c-2 -14 -13 -18 -42
-18 -46 0 -60 22 -19 28 58 9 65 8 61 -10z m-158 -23 c0 -5 -5 -10 -11 -10 -5
0 -7 5 -4 10 3 6 8 10 11 10 2 0 4 -4 4 -10z m70 -56 c0 -8 -4 -12 -10 -9 -5
3 -10 10 -10 16 0 5 5 9 10 9 6 0 10 -7 10 -16z m2445 -24 c-3 -5 -10 -10 -16
-10 -5 0 -9 5 -9 10 0 6 7 10 16 10 8 0 12 -4 9 -10z"/>
<path d="M6631 8504 c-7 -33 -13 -71 -13 -84 1 -14 1 -56 1 -95 1 -38 4 -92 7
-118 5 -42 9 -48 28 -45 19 3 21 10 24 73 3 74 -10 84 -17 13 -1 -5 -5 -8 -10
-8 -8 0 -8 22 -2 109 1 11 4 11 16 1 13 -11 14 -4 10 56 -3 37 -11 71 -17 75
-6 4 -8 11 -5 16 4 5 3 23 -2 39 -7 26 -8 24 -20 -32z"/>
<path d="M6668 8533 c5 -25 6 -25 13 -8 11 29 10 35 -5 35 -9 0 -12 -8 -8 -27z"/>
<path d="M5910 8333 c-65 -137 -93 -201 -100 -228 -5 -16 -17 -62 -29 -101
-23 -81 -61 -289 -60 -331 0 -20 6 -9 21 37 11 36 24 74 29 85 8 19 21 59 88
280 17 56 31 111 31 124 0 13 6 37 14 54 23 52 44 127 36 127 -4 0 -18 -21
-30 -47z"/>
<path d="M6580 7859 c0 -5 5 -7 10 -4 6 3 10 8 10 11 0 2 -4 4 -10 4 -5 0 -10
-5 -10 -11z"/>
<path d="M6610 7852 c0 -10 -4 -22 -9 -27 -4 -6 -6 -29 -3 -53 5 -50 24 -62
101 -62 35 0 53 5 66 20 18 20 17 21 -31 65 -27 25 -58 45 -70 45 -12 0 -24 7
-28 15 -8 21 -26 19 -26 -3z"/>
<path d="M7155 7803 c-3 -10 -8 -50 -11 -90 -3 -66 -2 -73 18 -84 18 -10 24
-8 39 12 24 31 24 76 -1 133 -20 49 -34 57 -45 29z"/>
<path d="M6648 7673 c7 -3 16 -2 19 1 4 3 -2 6 -13 5 -11 0 -14 -3 -6 -6z"/>
<path d="M7289 7522 c7 -5 10 -15 7 -21 -4 -6 -2 -11 4 -11 17 0 8 33 -10 37
-12 4 -13 3 -1 -5z"/>
<path d="M5873 7347 c-21 -20 -33 -39 -29 -45 9 -15 36 -16 36 -2 0 6 8 10 19
10 11 0 21 9 25 23 15 57 1 61 -51 14z"/>
<path d="M6750 7353 c0 -7 -5 -13 -11 -13 -13 0 -38 -30 -39 -46 0 -15 48 -36
55 -24 4 6 17 10 30 10 22 0 24 4 22 43 -2 40 -4 44 -29 44 -17 0 -28 -6 -28
-14z"/>
<path d="M7240 7080 c0 -5 4 -10 9 -10 6 0 13 5 16 10 3 6 -1 10 -9 10 -9 0
-16 -4 -16 -10z"/>
<path d="M6160 6812 c0 -5 7 -13 16 -16 10 -4 14 -1 12 6 -5 15 -28 23 -28 10z"/>
<path d="M7917 6724 c-4 -4 -7 -17 -7 -28 1 -19 1 -20 11 -3 11 19 8 43 -4 31z"/>
<path d="M7393 6484 c-25 -11 -12 -25 20 -22 17 2 32 8 32 13 0 11 -33 17 -52
9z"/>
<path d="M8116 5915 c4 -8 8 -15 10 -15 2 0 4 7 4 15 0 8 -4 15 -10 15 -5 0
-7 -7 -4 -15z"/>
<path d="M6990 8860 c-9 -6 -6 -10 10 -15 12 -4 26 -3 32 3 12 12 -25 23 -42
12z"/>
<path d="M4726 6398 c-13 -137 -13 -332 0 -381 7 -27 11 -54 8 -60 -6 -18 13
-44 24 -32 4 6 3 119 -3 255 -7 135 -10 250 -8 256 2 7 0 15 -6 18 -5 4 -12
-19 -15 -56z"/>
<path d="M5135 5810 c-3 -5 -1 -10 4 -10 6 0 11 5 11 10 0 6 -2 10 -4 10 -3 0
-8 -4 -11 -10z"/>
<path d="M1345 5421 c-4 -15 -14 -20 -33 -19 -15 1 -32 6 -39 10 -6 5 -14 5
-18 -2 -3 -5 -21 -10 -40 -10 -18 0 -40 -7 -49 -15 -8 -9 -19 -16 -23 -17 -37
-4 -152 -93 -165 -128 -6 -14 -12 -71 -15 -127 l-6 -103 69 -1 c111 -1 122
-15 19 -23 -80 -7 -129 -21 -196 -56 -9 -5 -37 -12 -64 -15 -29 -5 -59 -18
-79 -35 -17 -15 -57 -39 -89 -53 l-59 -27 5 -67 c3 -38 8 -80 12 -95 6 -23 2
-29 -37 -51 -23 -14 -68 -30 -98 -37 -114 -24 -127 -38 -105 -103 27 -80 27
-115 -1 -167 -40 -73 -71 -91 -214 -125 -36 -9 -77 -21 -93 -28 l-27 -12 0
-1483 c0 -1001 4 -1481 10 -1477 6 4 8 21 4 40 -5 29 -1 40 27 74 39 47 52 50
73 19 23 -32 20 -66 -9 -92 -14 -13 -25 -34 -25 -49 0 -30 -40 -63 -65 -53
-13 5 -15 -29 -15 -270 l0 -276 31 -59 c18 -32 35 -59 39 -59 4 0 13 -19 20
-41 10 -28 27 -51 53 -70 42 -31 117 -111 117 -127 0 -9 -68 -22 -120 -22 -15
0 -51 17 -83 40 l-57 39 0 -124 0 -125 765 0 c421 0 765 3 766 8 0 4 2 50 3
103 2 52 8 104 13 115 5 10 18 73 28 139 10 66 21 125 25 130 4 6 19 62 34
125 29 120 71 283 112 433 13 48 23 97 22 110 0 12 7 36 16 52 9 17 16 37 16
46 0 9 11 45 24 80 13 35 26 87 30 115 3 29 19 77 36 109 16 31 30 69 30 83 0
14 6 33 14 41 8 9 33 66 56 126 43 112 53 137 70 178 26 61 72 190 91 254 11
40 30 85 42 100 42 52 67 122 61 163 -6 34 -4 39 17 45 30 10 43 26 76 95 14
30 33 66 43 80 9 14 27 51 39 84 12 32 34 79 49 105 32 54 53 117 45 138 -3 9
15 34 50 66 41 39 59 65 72 104 16 52 16 53 -5 83 -25 35 -68 60 -105 60 -14
0 -43 9 -64 20 -32 16 -39 26 -45 59 -3 21 -9 46 -12 54 -3 10 5 25 22 39 15
13 46 42 68 64 51 51 103 79 181 95 67 13 183 64 202 88 15 20 16 59 3 97 -10
28 -74 79 -132 105 -18 8 -32 27 -45 62 l-18 51 -69 13 c-38 7 -71 14 -73 17
-3 3 -7 22 -10 43 -3 21 -10 49 -16 62 -14 28 -87 70 -126 72 l-26 2 25 4 c46
8 42 21 -8 28 -28 4 -58 2 -68 -3 -11 -6 -39 -18 -64 -27 -25 -9 -53 -21 -62
-26 -40 -20 -150 -8 -216 24 -66 32 -79 172 -20 230 37 38 35 59 -8 107 -32
35 -36 47 -36 87 1 38 6 51 28 68 25 20 26 25 19 76 -3 29 -11 71 -16 91 -10
40 -53 98 -72 98 -7 0 -36 16 -66 34 -48 30 -57 32 -87 23 -29 -9 -36 -8 -49
9 -21 28 -18 43 10 50 41 10 29 22 -44 38 -110 25 -113 27 -151 102 -32 63
-40 70 -80 84 -25 8 -48 19 -51 24 -4 5 -10 -1 -14 -13z m-131 -84 c15 -11 16
-15 5 -19 -20 -7 -62 10 -54 22 9 14 28 13 49 -3z m91 -47 c3 -5 -1 -10 -10
-10 -9 0 -13 5 -10 10 3 6 8 10 10 10 2 0 7 -4 10 -10z m280 -100 c3 -5 -3
-10 -14 -10 -12 0 -21 5 -21 10 0 6 6 10 14 10 8 0 18 -4 21 -10z m-526 -896
c2 -2 2 -7 -2 -10 -9 -10 -57 5 -57 17 0 10 48 4 59 -7z m301 -150 c12 -12 10
-14 -16 -14 -29 0 -54 15 -54 33 0 13 52 -1 70 -19z m-320 6 c0 -5 -4 -10 -10
-10 -5 0 -10 5 -10 10 0 6 5 10 10 10 6 0 10 -4 10 -10z m131 -39 l23 -18 -27
-17 c-30 -20 -55 -18 -70 5 -27 43 30 66 74 30z m294 -1 c3 -5 -1 -10 -9 -10
-9 0 -16 5 -16 10 0 6 4 10 9 10 6 0 13 -4 16 -10z m-798 -36 c-3 -3 -12 -4
-19 -1 -8 3 -5 6 6 6 11 1 17 -2 13 -5z m658 -13 c7 -12 -12 -24 -25 -16 -11
7 -4 25 10 25 5 0 11 -4 15 -9z m289 -22 c28 -22 34 -39 13 -39 -16 0 -57 37
-57 50 0 16 15 12 44 -11z m326 -12 c0 -7 -25 -34 -56 -60 -53 -44 -95 -59
-109 -38 -6 10 62 78 98 98 29 16 67 16 67 0z m-381 -121 c19 -20 8 -32 -34
-39 -44 -7 -65 0 -65 22 0 41 63 52 99 17z m135 -25 c7 -11 -22 -23 -35 -15
-5 3 -7 10 -4 15 8 12 32 12 39 0z m-1029 -21 c3 -5 -1 -10 -9 -10 -9 0 -16 5
-16 10 0 6 4 10 9 10 6 0 13 -4 16 -10z m1615 -84 c0 -16 15 -34 52 -62 58
-44 70 -64 39 -64 -48 0 -91 28 -111 72 -25 56 -25 78 0 78 14 0 20 -7 20 -24z
m-1760 -316 c0 -5 -7 -10 -15 -10 -8 0 -15 5 -15 10 0 6 7 10 15 10 8 0 15 -4
15 -10z m653 -381 c25 -14 37 -28 37 -46 0 -18 -26 -16 -55 3 -14 9 -49 16
-89 17 -43 1 -66 6 -66 14 0 22 136 31 173 12z m487 -29 c0 -5 -13 -10 -30
-10 -16 0 -30 5 -30 10 0 6 14 10 30 10 17 0 30 -4 30 -10z m718 -78 c2 -7 -6
-12 -17 -12 -21 0 -27 11 -14 24 9 9 26 2 31 -12z m-379 -30 c24 -8 63 -25 85
-38 23 -13 50 -24 61 -24 46 0 60 -44 20 -62 -20 -9 -28 -8 -43 5 -10 9 -43
25 -73 36 -130 45 -149 54 -149 77 0 24 16 35 40 27 8 -3 35 -12 59 -21z
m-212 -109 c4 -10 15 -30 26 -45 28 -38 18 -52 -21 -28 -37 23 -55 58 -40 78
14 17 27 15 35 -5z m-134 -10 c11 -10 -26 -32 -53 -32 l-25 0 24 19 c24 20 43
25 54 13z m649 -10 c30 -27 22 -43 -22 -43 -36 0 -40 3 -40 24 0 36 32 46 62
19z m-796 -165 c4 -7 7 -32 5 -56 -3 -52 9 -69 58 -78 42 -8 72 -30 65 -49
-10 -25 -92 -44 -209 -48 -37 -2 -40 0 -43 25 -3 22 2 30 22 38 35 13 46 39
46 114 0 63 1 66 24 66 14 0 28 -5 32 -12z m724 -94 c0 -2 -7 -4 -15 -4 -8 0
-15 4 -15 10 0 5 7 7 15 4 8 -4 15 -8 15 -10z m-1285 -143 c-6 -5 -30 -12 -55
-15 l-45 -6 30 15 c33 16 85 20 70 6z m-198 -37 c-3 -3 -12 -4 -19 -1 -8 3 -5
6 6 6 11 1 17 -2 13 -5z m987 -20 c26 -10 18 -24 -14 -24 -30 0 -41 14 -17 23
6 3 13 6 14 6 1 1 8 -2 17 -5z m201 -31 c-4 -21 -8 -39 -8 -39 -13 -10 -47
-12 -52 -4 -11 18 27 80 48 80 17 0 18 -5 12 -37z m-417 -6 c2 -12 -3 -17 -17
-17 -12 0 -21 6 -21 13 0 31 32 34 38 4z m-553 -46 c9 -16 -23 -39 -66 -46
-67 -12 -81 25 -16 44 43 12 75 13 82 2z m-912 -47 c9 -9 -4 -34 -18 -34 -14
0 -27 25 -18 34 4 3 12 6 18 6 6 0 14 -3 18 -6z m1852 -3 c7 -12 -12 -24 -25
-16 -11 7 -4 25 10 25 5 0 11 -4 15 -9z m11 -56 c8 -20 -13 -45 -32 -38 -17 6
-19 39 -1 46 21 9 27 7 33 -8z m-381 -85 c9 -10 15 -26 11 -35 -10 -27 -36
-29 -58 -5 -18 19 -29 21 -92 18 -58 -2 -71 0 -71 12 0 12 17 15 83 16 46 1
86 5 89 8 10 10 19 7 38 -14z m399 -15 c3 -8 -2 -22 -11 -30 -14 -15 -17 -15
-31 -1 -13 12 -13 18 -2 30 16 20 36 20 44 1z m-1146 -51 c38 -18 40 -29 10
-38 -44 -11 -58 -7 -58 17 0 20 7 37 15 37 1 0 16 -7 33 -16z m-258 -44 c0 -5
-7 -10 -16 -10 -8 0 -12 5 -9 10 3 6 10 10 16 10 5 0 9 -4 9 -10z m1012 -111
c2 -24 -1 -34 -14 -37 -23 -5 -33 33 -17 70 14 35 27 22 31 -33z m404 -15 c8
-30 -16 -60 -40 -51 -19 7 -21 48 -4 65 19 19 37 14 44 -14z m-1636 -74 c0 -5
-7 -10 -15 -10 -8 0 -15 5 -15 10 0 6 7 10 15 10 8 0 15 -4 15 -10z m1273
-163 c8 -21 -8 -39 -29 -35 -11 2 -20 13 -22 26 -3 18 1 22 21 22 14 0 27 -6
30 -13z m-98 -492 c0 -39 -1 -40 -38 -43 -69 -6 -94 47 -34 73 54 24 72 16 72
-30z m65 -64 c0 -23 -18 -31 -47 -20 -37 14 -29 39 12 39 28 0 35 -4 35 -19z
m-32 -117 c6 -40 -69 -58 -91 -22 -17 26 9 50 52 46 27 -2 37 -8 39 -24z
m-310 -276 c-3 -25 -34 -36 -51 -19 -14 14 9 41 35 41 14 0 19 -6 16 -22z
m122 7 c18 -21 6 -45 -19 -38 -20 5 -28 32 -14 46 10 11 19 8 33 -8z m-480
-85 c0 -5 -4 -10 -10 -10 -5 0 -10 5 -10 10 0 6 5 10 10 10 6 0 10 -4 10 -10z"/>
<path d="M3701 5324 c0 -11 3 -14 6 -6 3 7 2 16 -1 19 -3 4 -6 -2 -5 -13z"/>
<path d="M3690 5265 c0 -8 2 -15 4 -15 2 0 6 7 10 15 3 8 1 15 -4 15 -6 0 -10
-7 -10 -15z"/>
<path d="M5620 5157 c0 -24 5 -48 10 -53 6 -6 14 -42 19 -81 14 -115 10 -111
179 -129 68 -7 82 5 28 24 -54 20 -115 69 -122 99 -4 16 -17 42 -30 58 -12 17
-32 51 -43 78 -25 59 -41 60 -41 4z"/>
<path d="M3761 4892 c-6 -11 -11 -27 -11 -35 0 -8 -7 -20 -16 -28 -12 -10 -20
-10 -35 -1 -24 15 -51 -4 -114 -81 -22 -27 -68 -79 -102 -116 -35 -37 -63 -71
-63 -74 0 -4 17 -7 38 -7 41 0 103 29 142 66 14 13 41 34 60 47 19 12 44 42
56 67 72 145 74 151 65 167 -8 14 -10 14 -20 -5z m-144 -215 c-6 -20 -27 -19
-27 2 0 14 5 19 15 14 9 -3 14 -10 12 -16z"/>
<path d="M5857 4720 c-4 -15 1 -22 18 -26 12 -3 29 -5 36 -4 30 5 41 0 35 -15
-6 -17 7 -19 34 -5 14 8 21 6 28 -6 11 -20 32 -10 32 16 0 18 -25 34 -40 25
-5 -3 -11 -1 -15 5 -3 5 -28 10 -56 10 -27 0 -49 5 -49 10 0 18 -18 10 -23
-10z"/>
<path d="M3775 4600 c-4 -6 -3 -16 3 -22 6 -6 12 -6 17 2 4 6 3 16 -3 22 -6 6
-12 6 -17 -2z"/>
<path d="M5780 4594 c0 -8 5 -12 10 -9 6 4 8 11 5 16 -9 14 -15 11 -15 -7z"/>
<path d="M7642 4537 c-14 -63 -16 -267 -2 -267 5 0 12 10 15 23 8 38 15 297 7
297 -4 0 -13 -24 -20 -53z"/>
<path d="M3797 4563 c-7 -13 12 -67 33 -92 26 -30 36 -21 17 16 -8 15 -17 40
-21 56 -6 26 -20 35 -29 20z"/>
<path d="M5790 4552 c0 -5 23 -58 50 -117 28 -59 50 -118 50 -132 0 -17 22
-46 70 -95 39 -40 69 -77 66 -84 -3 -7 19 -40 49 -73 30 -34 59 -70 65 -82 7
-11 14 -18 17 -15 7 7 81 -80 98 -117 21 -43 65 -114 65 -104 0 4 24 -16 53
-46 28 -29 65 -63 81 -75 28 -21 28 -23 11 -36 -25 -18 -15 -81 19 -107 14
-11 28 -29 31 -40 6 -19 12 -21 51 -15 24 3 60 12 80 21 36 15 37 18 17 71 -6
15 42 60 85 81 19 9 39 28 45 42 6 14 22 38 36 53 22 25 23 30 11 52 -12 23
-75 70 -139 105 -37 19 -81 62 -81 78 0 16 -5 25 -63 123 -58 97 -87 192 -94
310 -6 90 -8 96 -40 129 l-33 34 -97 -6 c-75 -5 -108 -3 -142 9 -85 29 -361
57 -361 36z m301 -205 c-1 -12 -15 -9 -19 4 -3 6 1 10 8 8 6 -3 11 -8 11 -12z
m554 -576 c7 -12 -12 -24 -25 -16 -11 7 -4 25 10 25 5 0 11 -4 15 -9z m-125
-21 c0 -5 -4 -10 -10 -10 -5 0 -10 5 -10 10 0 6 5 10 10 10 6 0 10 -4 10 -10z"/>
<path d="M3725 4493 c3 -14 15 -38 26 -51 10 -14 19 -29 19 -35 0 -11 81 -89
87 -83 2 2 -14 30 -36 62 -23 33 -41 64 -41 69 -1 12 -46 65 -56 65 -3 0 -3
-12 1 -27z"/>
<path d="M7790 4504 c0 -8 5 -12 10 -9 6 3 10 10 10 16 0 5 -4 9 -10 9 -5 0
-10 -7 -10 -16z"/>
<path d="M7746 4478 c-3 -13 -8 -54 -11 -92 l-7 -69 29 7 c37 10 48 30 48 96
0 48 -3 57 -24 68 -30 16 -30 16 -35 -10z"/>
<path d="M5354 4445 c12 -49 26 -76 36 -70 15 9 12 33 -7 66 -21 35 -37 38
-29 4z"/>
<path d="M6537 4463 c-9 -16 -8 -125 1 -136 13 -16 23 -74 22 -121 -1 -45 21
-83 55 -96 21 -8 24 -14 19 -38 -7 -35 14 -56 23 -23 4 16 11 20 26 15 17 -5
19 -3 15 20 -4 18 -1 26 8 26 16 0 18 18 4 40 -7 12 -12 12 -22 2 -18 -18 -46
-15 -57 7 -15 27 10 45 54 38 l34 -6 0 57 c-1 52 -7 75 -43 152 -17 37 -126
86 -139 63z"/>
<path d="M5407 4314 c-7 -8 34 -94 45 -94 4 0 8 -9 8 -20 0 -11 5 -20 11 -20
7 0 8 7 4 18 -4 9 -16 41 -27 70 -20 50 -28 59 -41 46z"/>
<path d="M3905 4270 c3 -5 11 -10 17 -10 7 0 22 -10 35 -22 16 -15 23 -17 23
-7 0 8 -14 22 -31 32 -34 19 -53 22 -44 7z"/>
<path d="M2593 4178 c2 -7 10 -13 17 -13 7 0 15 6 18 13 2 7 -5 12 -18 12 -13
0 -20 -5 -17 -12z"/>
<path d="M5480 4163 c0 -23 35 -93 46 -93 19 0 17 10 -6 40 -11 14 -20 30 -20
37 0 13 -20 29 -20 16z"/>
<path d="M8650 4134 c-46 -11 -86 -13 -140 -8 -144 14 -302 13 -345 -3 -22 -8
-50 -17 -62 -20 -13 -3 -23 -9 -23 -14 0 -5 -6 -9 -14 -9 -8 0 -25 -21 -37
-47 -13 -27 -40 -75 -61 -108 -21 -33 -38 -65 -38 -70 0 -6 10 -16 22 -24 19
-12 23 -11 38 8 13 19 20 20 42 12 18 -7 26 -17 26 -33 0 -13 3 -32 7 -44 4
-14 1 -27 -10 -38 -18 -17 -76 -22 -103 -7 -9 5 -32 6 -51 4 -28 -5 -36 -13
-52 -48 -10 -23 -27 -53 -38 -67 -20 -24 -20 -25 0 -41 10 -9 19 -22 20 -29 3
-57 35 -96 65 -80 23 12 44 5 44 -14 0 -8 -10 -14 -25 -14 -14 0 -25 -4 -25
-8 0 -11 60 -92 69 -92 4 0 15 -15 26 -32 25 -45 62 -78 85 -78 27 0 35 -19
14 -34 -9 -7 -14 -18 -10 -24 4 -7 26 -63 50 -125 23 -62 68 -152 99 -202 31
-49 57 -93 57 -98 0 -4 32 -57 70 -117 39 -60 70 -113 70 -118 0 -5 18 -37 40
-71 22 -34 40 -64 40 -68 0 -3 15 -38 34 -77 41 -87 63 -148 72 -201 3 -22 12
-49 18 -60 7 -11 18 -40 26 -65 7 -25 19 -52 25 -60 20 -26 65 -160 65 -194 0
-17 5 -37 11 -43 16 -16 17 -574 1 -623 -23 -73 -32 -242 -36 -675 -1 -116 -6
-227 -10 -248 -5 -20 -5 -57 -2 -82 l7 -45 557 0 557 0 13 40 c6 22 12 49 12
60 0 29 23 34 59 15 24 -12 31 -22 31 -45 0 -17 4 -30 10 -30 5 0 18 -10 30
-22 l20 -22 0 1042 c0 1030 0 1041 -20 1052 -11 6 -30 30 -42 53 -24 48 -29
139 -10 197 6 19 14 67 18 105 5 69 28 135 45 135 5 0 9 93 9 208 l0 207 -42
13 c-23 7 -53 22 -68 32 -19 14 -37 17 -72 13 -29 -4 -65 1 -99 12 -105 34
-106 56 -4 54 42 -1 79 1 82 5 4 3 -3 16 -15 29 -12 13 -22 27 -22 33 -1 22
-47 64 -70 64 -64 -1 -118 -9 -145 -20 -62 -25 -192 -40 -253 -29 -99 19 -107
27 -110 104 -2 74 6 93 67 169 23 29 37 56 34 65 -10 29 -197 204 -238 222
-47 21 -93 67 -125 127 -13 23 -35 49 -48 58 -13 8 -21 21 -18 29 6 16 -18 96
-40 135 -26 44 -56 48 -164 24z m-594 -551 c-10 -10 -19 5 -10 18 6 11 8 11
12 0 2 -7 1 -15 -2 -18z m1384 -483 c0 -5 -6 -10 -14 -10 -8 0 -18 5 -21 10
-3 6 3 10 14 10 12 0 21 -4 21 -10z m-420 -169 c0 -11 -40 -22 -52 -15 -5 3
-6 10 -3 15 8 12 55 12 55 0z m600 -55 c0 -11 -19 -15 -25 -6 -3 5 1 10 9 10
9 0 16 -2 16 -4z m-614 -161 c5 -13 -21 -85 -30 -85 -11 0 -66 56 -66 67 0 30
86 46 96 18z m184 -330 c7 -14 11 -27 8 -30 -7 -7 -58 34 -58 46 0 19 37 8 50
-16z m255 -344 c-11 -29 -24 5 -18 49 l7 45 8 -40 c5 -21 6 -46 3 -54z m-295
-861 c0 -12 -29 -20 -35 -10 -9 15 4 30 20 23 8 -3 15 -9 15 -13z m792 -476
c11 -7 11 -44 -1 -44 -14 0 -75 22 -88 33 -23 17 -2 29 40 23 22 -4 44 -9 49
-12z m-957 -446 c-3 -85 3 -140 16 -132 5 3 9 18 9 34 0 16 5 41 12 57 6 15
12 35 12 43 1 8 11 16 24 18 23 4 29 -7 12 -24 -6 -6 -6 -22 2 -44 6 -19 13
-42 16 -50 2 -9 11 2 23 28 29 67 56 42 58 -53 1 -38 0 -40 -32 -41 -17 -1
-35 3 -39 9 -5 8 -13 6 -25 -5 -11 -9 -34 -15 -57 -14 -43 2 -54 16 -55 73 -1
17 -5 34 -10 37 -16 10 -41 -6 -47 -30 -8 -31 3 -49 21 -34 21 17 31 -9 11
-28 -13 -13 -20 -14 -34 -6 -13 9 -17 25 -17 74 l0 62 35 12 c31 10 35 16 38
49 2 22 8 37 16 37 10 0 13 -18 11 -72z m325 7 c0 -8 9 -20 20 -27 18 -11 18
-14 3 -30 -9 -10 -16 -37 -17 -63 -1 -25 -6 -45 -11 -46 -13 0 -24 56 -21 101
2 19 4 45 5 58 1 24 21 31 21 7z m-50 -85 c4 -66 1 -82 -14 -77 -7 3 -19 0
-25 -6 -22 -22 -37 25 -32 101 2 43 21 21 21 -25 0 -35 3 -44 10 -33 5 8 10
29 10 46 0 59 27 54 30 -6z"/>
<path d="M9035 187 c-15 -38 9 -66 29 -35 8 14 7 21 -6 35 -16 15 -18 15 -23
0z"/>
<path d="M7780 4091 c-11 -21 -14 -64 -4 -73 3 -3 17 -3 32 1 29 8 37 28 28
67 -8 29 -41 32 -56 5z"/>
<path d="M5544 4036 c4 -15 15 -40 25 -55 10 -14 25 -38 34 -52 18 -30 57 -45
57 -22 0 17 -24 43 -40 43 -7 0 -9 7 -6 16 4 11 -8 30 -35 58 -41 40 -42 40
-35 12z"/>
<path d="M5710 3956 c0 -2 7 -9 15 -16 12 -10 15 -10 15 4 0 9 -7 16 -15 16
-8 0 -15 -2 -15 -4z"/>
<path d="M5666 3845 c4 -8 10 -15 15 -15 4 0 6 7 3 15 -4 8 -10 15 -15 15 -4
0 -6 -7 -3 -15z"/>
<path d="M3782 3824 c-13 -9 -34 -14 -48 -11 -18 3 -28 -1 -35 -16 -9 -16 -13
-17 -20 -6 -8 12 -11 12 -19 -1 -5 -8 -8 -21 -5 -28 3 -9 -2 -12 -17 -10 -19
3 -23 -3 -31 -39 -10 -50 -9 -51 67 -136 62 -69 146 -185 146 -201 0 -6 32
-74 70 -152 39 -79 70 -149 70 -157 0 -24 40 -67 63 -67 22 0 22 -1 -3 -19
l-24 -19 26 -84 c14 -45 31 -110 38 -143 7 -33 27 -94 45 -136 19 -42 40 -98
49 -125 44 -142 65 -173 122 -181 29 -4 43 -1 53 11 21 25 64 20 94 -12 15
-15 27 -32 27 -36 0 -4 12 -33 26 -64 23 -50 73 -182 135 -362 11 -30 26 -69
34 -87 8 -17 15 -39 15 -49 0 -9 6 -25 13 -33 7 -9 19 -36 26 -61 7 -25 19
-61 26 -80 7 -19 23 -66 35 -105 12 -38 26 -74 31 -79 5 -6 9 -15 9 -22 0 -6
8 -29 17 -50 9 -22 16 -42 15 -46 -1 -5 2 -8 8 -8 5 0 10 -9 10 -20 0 -12 8
-37 18 -58 10 -20 17 -45 14 -55 -2 -12 1 -17 10 -15 16 4 58 -37 58 -57 0 -8
-7 -15 -15 -15 -20 0 -19 -20 4 -67 20 -39 35 -74 67 -155 11 -27 22 -48 27
-48 4 0 7 -16 7 -35 0 -24 5 -35 15 -35 8 0 15 7 15 15 0 15 38 40 48 31 3 -3
16 1 28 9 26 17 74 5 74 -18 0 -18 -21 -37 -42 -37 -10 0 -35 -7 -57 -16 -46
-18 -46 -19 -2 -127 6 -15 11 -37 11 -48 0 -26 47 -117 79 -152 14 -16 46 -39
71 -52 69 -35 84 -56 84 -123 0 -31 -4 -74 -8 -95 l-9 -37 727 0 c507 0 726 3
726 11 0 6 -5 19 -11 31 -12 21 -4 68 11 68 5 0 12 -9 15 -20 7 -23 25 -27 25
-5 0 8 5 15 11 15 15 0 5 114 -31 390 -7 47 -13 99 -15 115 -5 33 -6 37 -64
235 -56 190 -95 305 -125 374 -14 32 -26 64 -26 70 0 6 -7 24 -15 39 -24 46
-41 163 -54 372 -9 128 -9 129 -40 157 -35 32 -75 36 -124 14 -18 -8 -43 -16
-56 -19 -22 -5 -133 12 -211 33 -34 9 -146 28 -425 71 -71 11 -188 26 -260 34
-71 8 -174 20 -228 26 -127 15 -148 30 -154 114 -6 83 0 99 49 121 39 17 64
19 253 16 217 -2 415 -22 617 -63 57 -11 130 -22 163 -25 33 -2 74 -7 90 -10
17 -3 66 -12 109 -19 144 -26 161 -8 157 175 -1 69 -7 143 -13 165 l-11 40
-13 -54 c-7 -30 -10 -60 -6 -65 8 -14 12 -86 6 -108 -6 -21 -30 -24 -36 -5 -2
6 -3 53 -2 102 2 90 -5 130 -16 87 -9 -39 -25 -30 -32 18 -12 79 -9 154 7 177
17 25 29 94 18 108 -4 6 -42 21 -83 34 -41 13 -81 26 -87 28 -21 8 -26 -25
-10 -60 87 -187 86 -185 65 -244 -17 -46 -41 -50 -90 -17 -50 35 -58 48 -114
176 -105 239 -122 267 -174 284 -29 9 -46 8 -78 -9 -21 -10 -26 -8 -42 13
l-19 25 -26 -25 -26 -25 -18 24 c-12 15 -24 22 -34 18 -9 -3 -19 -2 -23 4 -3
6 -25 -18 -48 -53 -41 -63 -114 -138 -134 -138 -20 0 -72 77 -72 108 0 16 -10
51 -21 78 -51 116 -62 138 -66 127 -7 -19 -53 -16 -53 2 0 9 6 18 14 21 12 5
13 11 4 30 -6 13 -15 21 -19 18 -5 -3 -9 1 -9 8 -1 17 -135 171 -157 179 -27
10 -93 -1 -139 -23 -47 -23 -74 -18 -171 29 -49 24 -54 25 -98 12 l-47 -14 5
-50 c11 -100 27 -155 47 -155 9 0 23 -6 29 -14 12 -14 2 -27 -31 -39 -10 -3
-16 -12 -14 -19 3 -7 12 -44 21 -83 28 -123 68 -270 76 -281 9 -11 38 -176 46
-265 6 -63 -10 -124 -34 -133 -10 -4 -32 10 -63 41 -44 44 -51 58 -83 163 -36
124 -42 149 -87 370 -39 191 -63 277 -76 273 -6 -2 -17 3 -24 12 -10 12 -10
21 0 44 16 40 4 91 -28 119 -25 21 -26 24 -10 36 20 15 15 41 -25 136 -29 69
-48 100 -64 100 -6 0 -15 9 -18 20 -3 11 -13 20 -21 20 -8 0 -14 5 -14 10 0
15 -26 12 -40 -5 -15 -19 -145 -85 -165 -85 -27 0 -67 51 -60 77 5 20 0 26
-29 38 -32 13 -88 75 -69 75 9 1 -36 40 -46 40 -4 0 -17 -7 -29 -16z m-137
-114 c3 -5 1 -10 -4 -10 -6 0 -11 5 -11 10 0 6 2 10 4 10 3 0 8 -4 11 -10z
m544 -239 c16 -10 6 -31 -14 -31 -17 0 -28 17 -20 30 8 12 16 12 34 1z m-229
-46 c0 -20 -46 -30 -66 -14 -12 10 -12 14 -2 20 22 15 68 10 68 -6z m840 -310
c0 -8 -7 -15 -15 -15 -8 0 -15 7 -15 15 0 8 7 15 15 15 8 0 15 -7 15 -15z
m150 -31 c0 -16 -37 -37 -50 -29 -13 8 -13 28 1 42 14 14 49 5 49 -13z m-550
-259 c0 -20 -10 -30 -50 -50 -51 -26 -94 -32 -105 -15 -3 6 2 13 12 16 37 11
98 45 116 63 18 18 27 13 27 -14z m25 -123 c0 -18 -20 -15 -23 4 -3 10 1 15
10 12 7 -3 13 -10 13 -16z m1535 -46 c0 -14 -29 -31 -38 -22 -2 3 -2 12 1 21
8 19 37 20 37 1z m360 -355 c0 -22 -16 -36 -24 -22 -8 12 3 41 15 41 5 0 9 -9
9 -19z m-34 -98 c-5 -12 -10 -13 -17 -6 -8 8 -7 18 2 34 12 21 14 22 17 6 2
-10 1 -25 -2 -34z m-1016 -365 c0 -6 7 -8 15 -4 10 4 15 -1 15 -14 0 -13 -7
-20 -20 -20 -11 0 -20 5 -20 10 0 18 -18 10 -23 -10 -3 -12 -14 -20 -26 -20
-17 0 -21 6 -21 36 0 31 3 36 20 31 11 -3 22 -1 25 4 7 10 35 0 35 -13z m168
-7 c3 -16 -1 -22 -10 -19 -7 3 -15 15 -16 27 -3 16 1 22 10 19 7 -3 15 -15 16
-27z m-278 -31 c0 -20 -5 -30 -15 -30 -18 0 -20 31 -3 48 17 17 18 16 18 -18z
m1135 -80 c-5 -8 -11 -8 -17 -2 -6 6 -7 16 -3 22 5 8 11 8 17 2 6 -6 7 -16 3
-22z m-521 -121 c-3 -5 -10 -7 -15 -3 -5 3 -7 10 -3 15 3 5 10 7 15 3 5 -3 7
-10 3 -15z m-664 -19 c0 -12 -28 -25 -36 -17 -9 9 6 27 22 27 8 0 14 -5 14
-10z m96 -222 c9 -14 -31 -48 -57 -48 -33 0 -20 44 16 53 32 8 33 8 41 -5z
m512 -95 c-5 -26 -38 -29 -38 -4 0 15 6 21 21 21 14 0 19 -5 17 -17z m220 -60
c-4 -36 -38 -45 -38 -10 0 27 7 37 27 37 10 0 13 -9 11 -27z m62 2 c0 -8 -4
-15 -10 -15 -5 0 -10 7 -10 15 0 8 5 15 10 15 6 0 10 -7 10 -15z m-140 -36 c0
-10 -7 -19 -15 -19 -15 0 -21 31 -9 43 11 10 24 -3 24 -24z m-136 -5 c8 -20
-10 -54 -28 -54 -19 0 -25 20 -15 48 10 25 34 29 43 6z m70 -3 c7 -10 -22 -37
-30 -28 -9 8 3 37 15 37 5 0 12 -4 15 -9z m-874 -26 c0 -14 -4 -25 -9 -25 -10
0 -21 36 -13 44 12 13 22 5 22 -19z m297 10 c7 -21 -23 -45 -67 -54 -25 -4
-52 -10 -60 -12 -11 -3 -15 4 -15 26 0 27 4 30 38 36 20 3 40 9 44 13 10 10
56 3 60 -9z m423 -19 c0 -14 -5 -28 -11 -32 -17 -10 -32 12 -24 35 9 29 35 27
35 -3z m295 -36 c0 -13 -5 -25 -11 -27 -14 -5 -25 22 -17 42 8 23 28 12 28
-15z m75 4 c0 -8 -7 -14 -15 -14 -15 0 -21 21 -9 33 10 9 24 -2 24 -19z m-291
-38 c9 -11 10 -20 1 -35 -16 -31 -40 -27 -40 7 0 43 17 54 39 28z m141 -7 c0
-5 -7 -9 -15 -9 -15 0 -20 12 -9 23 8 8 24 -1 24 -14z m-655 -23 c0 -24 -6
-30 -43 -43 -56 -18 -87 -14 -87 12 0 15 12 24 47 36 26 8 51 19 55 22 13 14
28 0 28 -27z m595 19 c0 -20 -34 -37 -48 -23 -6 6 -8 17 -5 24 7 19 53 18 53
-1z m-80 -129 c0 -8 -5 -18 -11 -22 -14 -8 -33 11 -25 25 10 16 36 13 36 -3z
m-10 -121 c0 -8 -4 -15 -10 -15 -5 0 -10 7 -10 15 0 8 5 15 10 15 6 0 10 -7
10 -15z m302 -7 c7 -19 -2 -38 -18 -38 -8 0 -14 8 -14 18 0 30 23 44 32 20z
m-64 -22 c4 -17 -14 -46 -29 -46 -14 0 -21 41 -8 56 15 18 33 13 37 -10z
m-144 -54 c-16 -25 -38 -21 -42 7 -5 30 18 45 38 25 11 -11 12 -19 4 -32z
m-86 -9 c-2 -17 -10 -29 -20 -31 -14 -3 -18 3 -18 27 0 25 4 31 21 31 16 0 20
-5 17 -27z m-175 -49 c-4 -10 -9 -12 -15 -6 -12 12 -1 35 12 27 5 -3 6 -13 3
-21z m747 -193 c0 -11 -4 -22 -9 -25 -11 -7 -20 14 -13 32 7 19 22 14 22 -7z
m68 -3 c16 -16 15 -45 -2 -51 -19 -8 -26 1 -26 35 0 30 9 35 28 16z m122 -53
c7 -8 18 -15 25 -15 27 0 75 -32 75 -50 0 -16 -6 -18 -35 -16 -20 2 -39 7 -43
11 -4 4 -22 13 -39 20 -21 9 -33 21 -33 33 0 34 28 44 50 17z m160 -70 c6 -8
9 -23 5 -36 l-7 -21 -20 20 c-12 12 -18 27 -15 36 8 20 21 20 37 1z m125 -54
c7 -24 -4 -51 -21 -51 -9 0 -14 12 -14 35 0 38 24 50 35 16z"/>
<path d="M3373 3620 c-13 -5 -60 -11 -105 -13 -65 -4 -93 -10 -131 -31 -26
-14 -53 -26 -58 -26 -30 0 -187 -153 -195 -190 -3 -14 -10 -34 -16 -45 -7 -11
-20 -37 -31 -58 -10 -21 -38 -66 -63 -99 -24 -33 -44 -66 -44 -72 0 -13 -26
-66 -52 -106 -28 -43 -31 -68 -11 -94 10 -14 24 -26 32 -26 8 0 22 -7 31 -15
14 -13 19 -11 44 10 34 29 39 30 56 10 17 -21 37 -19 45 4 8 25 35 32 56 14
14 -12 21 -11 50 6 31 19 35 19 57 5 22 -15 25 -14 43 5 23 24 51 27 69 6 10
-12 15 -10 35 13 20 22 27 25 42 16 10 -6 19 -20 21 -31 2 -16 -4 -22 -29 -27
-17 -3 -35 -3 -41 0 -5 3 -25 -2 -44 -11 -20 -9 -45 -14 -57 -11 -11 3 -29 0
-40 -6 -11 -5 -36 -12 -56 -14 -35 -3 -108 -16 -206 -36 -27 -5 -68 -11 -90
-12 -22 -2 -51 -8 -65 -13 -14 -6 -37 -16 -52 -22 -16 -6 -28 -16 -28 -22 0
-12 -24 -68 -63 -144 -11 -22 -29 -58 -40 -80 -11 -22 -23 -49 -28 -60 -32
-83 -73 -184 -84 -205 -26 -48 -64 -136 -99 -225 -19 -49 -49 -124 -66 -165
-35 -85 -66 -171 -150 -415 -66 -194 -84 -255 -141 -485 -78 -315 -77 -313
-92 -402 -12 -67 -11 -80 2 -102 27 -45 56 -34 171 63 130 111 197 144 327
165 148 23 358 46 423 46 33 0 61 3 64 8 2 4 -22 36 -55 72 -58 64 -70 95 -47
118 26 26 85 2 184 -73 43 -33 105 -66 209 -111 84 -37 174 -36 189 1 3 9 11
13 16 10 6 -4 18 -1 26 6 11 9 18 9 26 1 17 -17 35 -15 42 3 7 20 -42 65 -115
105 -44 23 -64 29 -89 23 -31 -6 -33 -5 -27 19 6 23 -3 33 -77 94 -115 94
-153 167 -104 197 13 9 31 4 80 -22 134 -71 119 -67 138 -41 17 22 17 22 36 3
14 -15 37 -22 87 -26 37 -2 67 -1 67 4 0 5 38 7 85 5 48 -3 87 0 91 5 12 21
-121 163 -246 263 -53 42 -71 51 -105 51 -38 0 -40 2 -45 35 -5 34 -6 35 -47
32 -34 -3 -42 0 -48 17 -3 12 -17 21 -33 23 -23 2 -27 8 -27 33 0 26 -10 37
-85 88 -47 31 -109 69 -138 84 -83 43 -128 90 -135 141 -6 51 6 67 66 83 65
17 343 -19 475 -62 61 -20 64 -20 77 -3 11 15 15 16 29 5 9 -7 16 -19 16 -26
0 -7 21 -18 48 -25 96 -25 148 -46 172 -70 14 -14 36 -33 49 -42 21 -15 26
-15 46 -2 25 16 24 57 -1 47 -16 -6 -19 13 -4 22 6 3 10 13 10 22 0 9 9 27 21
39 21 22 21 24 5 93 -9 39 -25 92 -35 119 -11 26 -22 70 -26 98 -4 27 -23 96
-41 153 -46 140 -71 271 -79 412 -7 125 -10 135 -45 152 -33 17 -34 28 -7 68
23 33 23 42 25 244 1 205 2 210 24 227 13 10 40 23 61 28 32 9 37 15 37 41 0
22 -11 41 -46 74 -47 46 -74 54 -121 35z m-457 -550 c8 0 14 -9 14 -19 0 -15
-13 -22 -62 -33 -64 -15 -103 -8 -95 15 2 7 16 14 32 15 16 2 38 10 49 18 12
8 27 12 34 9 8 -3 20 -5 28 -5z m428 -132 c14 -23 -11 -50 -42 -46 -34 4 -38
22 -12 48 23 23 38 23 54 -2z m-424 -268 c0 -5 -4 -10 -10 -10 -5 0 -10 5 -10
10 0 6 5 10 10 10 6 0 10 -4 10 -10z m-120 -125 c0 -8 -9 -15 -20 -15 -11 0
-20 7 -20 15 0 8 9 15 20 15 11 0 20 -7 20 -15z m-127 -20 c1 -5 -6 -11 -15
-13 -11 -2 -18 3 -18 13 0 17 30 18 33 0z m517 -195 c0 -5 -4 -10 -10 -10 -5
0 -10 5 -10 10 0 6 5 10 10 10 6 0 10 -4 10 -10z"/>
<path d="M5480 3565 c0 -34 38 -67 75 -64 17 2 36 0 43 -4 8 -6 10 -3 6 7 -3
9 -10 16 -15 16 -5 0 -32 16 -59 35 l-50 35 0 -25z"/>
<path d="M6774 3513 c-16 -16 -15 -18 10 -24 36 -10 56 -2 56 22 0 25 -42 26
-66 2z"/>
<path d="M2778 3486 c-26 -23 -26 -24 -8 -41 16 -15 21 -15 32 -3 14 15 38 55
38 63 0 14 -38 2 -62 -19z"/>
<path d="M5622 3460 c-11 -18 -9 -22 20 -40 18 -11 38 -20 45 -20 7 0 27 -8
45 -18 40 -22 78 -33 78 -22 0 4 -12 11 -26 14 -19 5 -25 12 -21 25 3 14 -1
16 -24 13 -26 -4 -29 -1 -29 22 0 21 -5 26 -24 26 -14 0 -28 5 -31 10 -9 15
-19 12 -33 -10z"/>
<path d="M6750 3420 c0 -5 5 -10 10 -10 6 0 10 5 10 10 0 6 -4 10 -10 10 -5 0
-10 -4 -10 -10z"/>
<path d="M6907 3423 c-4 -3 -7 -15 -7 -25 0 -15 -5 -17 -25 -12 -16 4 -25 2
-25 -6 0 -7 6 -10 14 -7 9 3 21 -4 30 -19 21 -31 46 -31 46 0 0 28 -24 78 -33
69z"/>
<path d="M6708 3302 c-27 -8 -48 -19 -48 -23 0 -3 15 -9 32 -13 24 -5 36 -2
44 9 6 8 16 15 23 15 6 0 11 7 11 15 0 18 -1 18 -62 -3z"/>
<path d="M7761 3134 c-64 -35 -77 -49 -91 -98 -17 -63 -6 -104 35 -123 23 -11
35 -25 39 -45 3 -17 14 -32 24 -35 11 -2 25 -20 32 -39 14 -34 35 -45 42 -22
6 17 38 2 38 -18 0 -9 -8 -18 -18 -21 -14 -3 -18 -11 -14 -31 7 -39 19 -50 47
-44 22 4 25 1 25 -24 0 -15 3 -24 8 -20 4 4 7 13 7 19 0 7 9 13 20 15 16 2 17
1 5 -7 -12 -8 -12 -13 -3 -22 17 -17 26 -5 25 30 0 21 5 30 19 34 22 6 26 27
4 27 -18 0 -20 21 -3 38 10 10 10 17 0 33 -7 11 -16 43 -19 70 -4 34 -12 54
-26 64 -17 12 -18 17 -8 29 11 13 9 27 -7 78 -11 35 -27 80 -36 101 -15 35
-19 37 -59 36 -25 0 -60 -11 -86 -25z m199 -445 c0 -11 -4 -17 -10 -14 -5 3
-10 13 -10 21 0 8 5 14 10 14 6 0 10 -9 10 -21z"/>
<path d="M3551 3015 c1 -19 18 -51 18 -35 0 8 -4 22 -9 30 -5 8 -9 11 -9 5z"/>
<path d="M3568 2941 c-21 -24 -28 -43 -28 -73 0 -34 2 -39 14 -29 12 10 15 8
18 -10 2 -12 9 -24 16 -27 14 -4 17 45 3 67 -6 9 -6 22 0 33 6 11 9 31 7 46
l-3 26 -27 -33z"/>
<path d="M3625 2939 c-5 -15 -3 -25 4 -27 7 -2 17 -16 23 -31 6 -14 12 -21 14
-15 3 6 -4 30 -15 54 -18 39 -19 41 -26 19z"/>
<path d="M3605 2874 c4 -16 8 -35 11 -41 4 -15 44 -18 44 -3 0 6 -6 9 -12 8
-7 -2 -14 7 -16 19 -2 12 -10 27 -18 34 -13 11 -14 8 -9 -17z"/>
<path d="M2632 2829 c2 -6 8 -10 13 -10 5 0 11 4 13 10 2 6 -4 11 -13 11 -9 0
-15 -5 -13 -11z"/>
<path d="M3560 2793 c0 -5 5 -15 10 -23 8 -12 10 -11 10 8 0 12 -4 22 -10 22
-5 0 -10 -3 -10 -7z"/>
<path d="M3599 2798 c-1 -2 -3 -22 -5 -45 -4 -43 9 -64 29 -44 8 8 8 11 -2 11
-13 0 -12 26 4 63 5 12 3 17 -9 17 -9 0 -16 -1 -17 -2z"/>
<path d="M3662 2784 c3 -17 21 -21 26 -6 1 5 -4 12 -13 16 -11 4 -15 1 -13
-10z"/>
<path d="M3680 2715 c0 -8 5 -15 10 -15 6 0 10 7 10 15 0 8 -4 15 -10 15 -5 0
-10 -7 -10 -15z"/>
<path d="M7920 2576 c0 -9 7 -16 16 -16 9 0 14 5 12 12 -6 18 -28 21 -28 4z"/>
<path d="M3640 2281 c0 -5 9 -16 20 -26 19 -18 20 -17 20 2 0 12 -8 23 -20 26
-11 3 -20 2 -20 -2z"/>
<path d="M7150 2150 c0 -8 -8 -10 -21 -7 -12 3 -32 1 -45 -5 -20 -10 -22 -13
-8 -22 12 -9 13 -17 4 -41 -14 -37 -7 -55 19 -48 15 4 21 1 21 -11 0 -15 12
-21 34 -17 5 1 13 -4 18 -11 6 -10 10 -10 18 2 8 13 11 12 24 -5 14 -19 15
-19 22 -2 3 10 2 23 -3 28 -7 7 -7 20 0 40 10 25 8 32 -11 52 l-23 22 -5 -22
c-9 -33 -25 -28 -18 5 4 19 1 32 -10 41 -12 10 -16 11 -16 1z"/>
<path d="M3731 2024 c0 -11 3 -14 6 -6 3 7 2 16 -1 19 -3 4 -6 -2 -5 -13z"/>
<path d="M3720 1965 c0 -8 5 -15 10 -15 6 0 10 7 10 15 0 8 -4 15 -10 15 -5 0
-10 -7 -10 -15z"/>
<path d="M2780 1871 c0 -12 21 -33 58 -58 31 -21 73 -50 92 -64 19 -15 61 -40
94 -58 69 -37 141 -85 176 -116 14 -13 43 -35 65 -50 38 -25 114 -88 199 -167
23 -21 46 -38 52 -38 6 0 19 -9 29 -20 10 -11 22 -20 27 -20 4 0 8 9 8 20 0
11 5 20 10 20 27 0 -20 139 -47 140 -7 0 -13 11 -13 25 0 14 -4 25 -10 25 -5
0 -10 8 -10 18 0 11 -9 27 -20 37 -11 10 -20 26 -20 35 0 10 -7 23 -15 30 -8
7 -15 18 -15 25 0 6 -15 28 -34 47 -28 29 -57 42 -167 77 -74 23 -145 47 -159
51 -39 14 -63 14 -94 1 -30 -12 -58 -1 -53 22 2 13 -71 35 -120 36 -26 1 -33
-3 -33 -18z m365 -98 c3 -8 2 -25 -1 -39 -8 -29 -40 -32 -49 -4 -3 11 -12 20
-19 20 -16 0 -38 24 -30 33 12 12 93 4 99 -10z"/>
<path d="M7185 1820 c-3 -5 -17 -10 -30 -10 -28 0 -105 -37 -122 -60 -15 -19
-17 -166 -3 -175 6 -4 8 -15 5 -25 -7 -21 14 -101 28 -111 5 -4 27 -4 47 -2
26 4 46 0 61 -11 13 -9 34 -16 47 -16 24 0 81 -27 93 -44 4 -4 10 -3 13 3 12
19 34 12 38 -11 l3 -22 25 25 c71 69 71 69 55 134 -7 33 -11 63 -8 68 3 5 1
12 -5 16 -13 8 -62 100 -62 118 0 13 -7 23 -37 58 -7 7 -13 23 -13 35 0 24 -6
26 -77 34 -31 4 -54 2 -58 -4z"/>
<path d="M7328 1328 c-2 -24 -9 -34 -23 -36 -37 -6 -115 -47 -115 -60 0 -9 -6
-12 -17 -8 -20 8 -33 -10 -33 -44 0 -15 -5 -31 -11 -37 -9 -9 -8 -16 5 -28 9
-9 21 -26 27 -37 6 -12 17 -17 26 -14 12 5 14 0 11 -23 -3 -21 -1 -28 9 -24 7
3 16 -2 19 -11 4 -10 18 -16 40 -16 18 0 37 -6 41 -12 26 -42 113 -47 113 -7
0 11 7 22 16 26 8 3 19 16 24 29 11 27 1 126 -11 118 -13 -8 -11 20 3 34 9 9
9 15 0 24 -7 7 -12 20 -12 30 0 10 -5 18 -10 18 -18 0 -67 54 -74 83 -9 37
-24 34 -28 -5z"/>
<path d="M3440 891 c0 -13 28 -33 41 -29 6 2 0 12 -15 21 -14 10 -26 13 -26 8z"/>
<path d="M7433 709 c-7 -7 -13 -21 -13 -31 0 -10 -7 -21 -15 -24 -21 -8 -45
-62 -45 -101 0 -18 -7 -45 -16 -58 -12 -18 -14 -34 -9 -57 4 -18 8 -123 9
-233 l1 -200 209 -3 208 -2 -6 22 c-4 13 -13 55 -21 93 -22 113 -67 229 -90
233 -11 2 -26 11 -32 20 -18 22 -16 87 2 106 9 9 11 17 5 21 -5 3 -10 1 -10
-5 0 -6 -4 -9 -9 -5 -6 3 -9 13 -9 23 1 26 -20 72 -33 72 -6 0 -9 7 -5 15 3 9
-3 19 -15 25 -11 6 -24 23 -30 36 -6 17 -15 24 -27 22 -10 -2 -21 5 -27 20 -8
18 -12 21 -22 11z"/>
<path d="M8140 710 c-14 -3 -26 -14 -28 -25 -4 -24 -30 -45 -46 -39 -14 5 -49
-74 -44 -98 1 -7 -6 -26 -16 -41 -17 -26 -19 -51 -20 -268 l-1 -239 155 0
c140 0 156 2 167 19 6 10 29 21 50 25 21 3 58 15 82 26 42 19 43 21 38 57 -4
20 -16 46 -28 59 -14 15 -20 31 -16 44 3 11 -3 42 -14 68 -10 26 -28 81 -40
122 -24 86 -46 136 -71 162 -10 9 -20 29 -24 43 -4 16 -12 24 -19 21 -22 -8
-85 16 -85 33 0 27 -14 38 -40 31z m120 -84 c0 -3 -4 -8 -10 -11 -5 -3 -10 -1
-10 4 0 6 5 11 10 11 6 0 10 -2 10 -4z m140 -436 c0 -5 -7 -10 -15 -10 -8 0
-15 5 -15 10 0 6 7 10 15 10 8 0 15 -4 15 -10z m-70 -20 c0 -5 -4 -10 -10 -10
-5 0 -10 5 -10 10 0 6 5 10 10 10 6 0 10 -4 10 -10z m-120 -51 c0 -20 -24 -26
-35 -9 -8 13 14 42 26 34 5 -3 9 -14 9 -25z"/>
<path d="M2350 600 c-105 -22 -132 -33 -193 -73 -42 -29 -68 -69 -54 -83 6 -7
166 15 187 25 8 5 62 11 120 14 393 22 463 27 469 33 3 3 -5 15 -19 26 -14 11
-24 22 -22 24 9 13 -20 37 -54 44 -70 17 -340 11 -434 -10z"/>
<path d="M2925 580 c3 -5 8 -10 11 -10 2 0 4 5 4 10 0 6 -5 10 -11 10 -5 0 -7
-4 -4 -10z"/>
<path d="M2241 244 c-103 -18 -143 -33 -245 -92 -86 -50 -187 -82 -255 -82
-24 0 -34 -7 -46 -30 -8 -16 -15 -31 -15 -35 0 -3 227 -5 505 -5 l505 0 6 25
c3 13 26 43 50 65 24 22 44 43 44 45 0 10 -67 4 -125 -11 -206 -53 -265 -53
-265 -1 0 23 7 28 113 75 68 31 63 51 -10 41 -67 -9 -116 -6 -156 10 -16 6
-29 11 -30 10 -1 -1 -35 -7 -76 -15z"/>
<path d="M3360 21 c0 -6 5 -13 10 -16 6 -3 10 1 10 9 0 9 -4 16 -10 16 -5 0
-10 -4 -10 -9z"/>
<path d="M3400 21 c0 -9 80 -19 100 -13 6 2 8 8 4 13 -7 12 -104 12 -104 0z"/>
<path d="M3543 17 c4 -14 66 -17 70 -3 1 4 -15 10 -36 12 -27 2 -37 -1 -34 -9z"/>
<path d="M6820 10 c0 -5 5 -10 10 -10 6 0 10 5 10 10 0 6 -4 10 -10 10 -5 0
-10 -4 -10 -10z"/>
<path d="M8470 10 c0 -5 5 -10 11 -10 5 0 7 5 4 10 -3 6 -8 10 -11 10 -2 0 -4
-4 -4 -10z"/>
</g>
</svg>
